<?xml version="1.0" encoding="utf-8"?>
<!-- Generator: Adobe Illustrator 24.1.1, SVG Export Plug-In . SVG Version: 6.00 Build 0)  -->
<svg version="1.1" id="Layer_1" xmlns="http://www.w3.org/2000/svg" xmlns:xlink="http://www.w3.org/1999/xlink" x="0px" y="0px"
	 viewBox="0 0 171.5 171.5" style="enable-background:new 0 0 171.5 171.5;" xml:space="preserve">
<path d="M57,2c0.8-0.4,2-1.2,2.9-1.2c0.4,0,1-0.3,1.4-0.4c0.6-0.1,1.2-0.2,1.8-0.3c2.1-0.2,4.2,0,6.2,0.5c2,0.5,3.8,1.4,5.5,2.6
	c1.7,1.3,3.1,2.9,4.4,4.5c1.4,1.7,2.5,3.8,3.4,5.7c0.9,2,1.8,4.1,2.2,6.3c0.4,2.1,0.9,4.1,1,6.2c0.1,2.2,0,4.5-0.1,6.7
	c-0.1,2.2-0.1,4.3-0.1,6.5c0,2.1,0,4.3,0.3,6.3c0.3,2,0.7,4.1,1.6,6c0.3,0.6,1,1.9,1.7,2c0.4,0.1,0.8-0.3,1.1-0.4
	c0.6-0.3,1.1-0.6,1.7-0.9c4.1-2.1,8.3-4.1,12.5-6c4.1-1.9,8.3-3.8,12.5-5.5c2.1-0.8,4.2-1.7,6.4-2.3c2-0.6,3.9-0.9,6-0.4
	c2,0.5,3.9,1.4,5.6,2.4c1.8,1,3.6,2.2,5,3.6c0.7,0.7,1.4,1.4,1.9,2.2c0.5,0.9,0.7,1.8,0.6,2.8c-0.2,2-0.8,4-1.1,6
	c-0.1,1-0.1,2,0.4,2.9c0.6,0.9,1.5,1.6,2.4,2.2c1.6,1.2,3.4,2.2,5,3.4c0.7,0.6,1.5,1.3,1.8,2.1c0.3,0.9,0.2,2,0,3
	c-0.4,2-1.2,4-1.6,6c-0.2,0.9-0.4,1.9,0,2.9c0.4,1,1.1,1.8,1.8,2.5c1.5,1.5,3.3,2.9,4.7,4.6c1.5,1.7,1.6,3.6,1.2,5.8
	c-0.4,2.1-1.3,4-2,6c-0.7,1.9-1.2,3.7-0.3,5.7c0.5,1,0.9,2,1.4,3c0.5,1,1.1,2,1.3,3.1c0.3,2-0.4,4.2-1,6c-0.7,2-1.6,3.9-2.6,5.7
	c-1,1.8-2.3,3.3-3.9,4.7c-1.7,1.4-3.6,2.5-5.4,3.6c-7.9,4.5-16.4,7.9-24.7,11.4c-4.1,1.7-8.3,3.4-12.5,4.9c-1,0.3-1.9,0.7-2.9,1.1
	c-1,0.4-2,0.6-3,0.8c-2.1,0.5-4.1,1.1-6.2,1.6c-4.2,1.1-8.4,2.2-12.7,3.3c-2.1,0.5-4.3,1.1-6.4,1.7c-1,0.3-2.1,0.5-3.1,0.8
	c-0.3,0.1-0.6,0.2-0.9-0.1c-0.3-0.5-0.5-1.1-0.8-1.7c-7.8-16.8-15.7-33.7-23.5-50.5c-0.5-1-0.9-2-1.4-3c-0.1-0.2-0.4-0.6-0.3-0.9
	c0-0.3,0.8-0.5,1.1-0.7c0.9-0.4,1.8-0.8,2.6-1.4c0.8-0.6,1.4-1.4,2-2.3c2.2-3.4,3-7.8,3.5-11.7c0.6-4.3,0.8-8.7,0.8-13
	c0-4.4-0.3-8.8-0.4-13.1c-0.1-4.3,1.6-8,3.5-11.7c0.9-1.9,1.8-3.8,2.4-5.8c0.6-2.1,0.8-4.2,0.8-6.3c-0.1-4.4-0.8-8.9-2.1-13.1
	c-1.3-4.3-2.6-8.6-4.3-12.8c-0.3-0.7-0.5-1.4-0.2-2.1c0.1-0.3,0.3-0.6,0.6-0.8C56.5,2.5,57,2.2,57,2C57.9,1.5,57,2.1,57,2z
	 M13.8,114.5c4.8,10.3,9.6,20.6,14.4,30.9c2,4.2,3.9,8.4,5.9,12.6c1,2.1,2,4.2,2.9,6.3c0.5,1.1,1,2.2,1.5,3.3c0.2,0.5,0.5,1,0.7,1.5
	c0.3-0.1,0.6,0.5,0.8,0.7c1.2,1.2,3.1,1.8,4.8,1.6c1-0.1,1.8-0.5,2.7-0.9c1-0.5,2-0.9,3-1.4c4.2-1.9,8.3-3.9,12.5-5.8
	c1.7-0.8,3.1-2.2,3.6-4.1c0.6-2-0.1-3.8-1-5.6c-2-4.2-3.9-8.4-5.9-12.7c-3.9-8.5-7.9-16.9-11.8-25.4c-2-4.2-3.8-8.5-5.9-12.6
	c-0.9-1.8-2.3-3.2-4.3-3.6c-1.9-0.5-3.6,0.2-5.3,1c-4.2,2-8.4,3.9-12.6,5.9c-1.9,0.9-4,1.6-5.1,3.5c-0.5,0.8-0.8,1.6-0.9,2.5
	c-0.1,0.4-0.1,0.8,0,1.2C13.8,113.7,14.1,114.3,13.8,114.5C22.3,132.7,14,114.4,13.8,114.5z"/>
</svg>
