<svg id="Capa_1" data-name="Capa 1" xmlns="http://www.w3.org/2000/svg" viewBox="0 0 419.13 201.38"><defs><style>.cls-1{fill:#f3f3f3;}.cls-2{fill:#fefefe;}.cls-3{fill:#6dcb3c;}.cls-4{fill:#f55e5d;}.cls-5{fill:#5a5a5a;}.cls-6{fill:#595959;}.cls-7{fill:#5d5d5d;}.cls-8{fill:#5b5b5b;}.cls-9{fill:#5e5e5e;}.cls-10{fill:#5c5c5c;}.cls-11{fill:#636363;}.cls-12{fill:#686868;}.cls-13{fill:#6a6a6a;}.cls-14{fill:#5f5f5f;}.cls-15{fill:#616161;}.cls-16{fill:#f0f0f0;}.cls-17{fill:#f2f2f2;}.cls-18{fill:#efefef;}.cls-19{fill:#f1f1f1;}.cls-20{fill:#e0e0e0;}.cls-21{fill:#e1e1e1;}.cls-22{fill:#ededed;}.cls-23{fill:#eee;}.cls-24{fill:#dbdbdb;}.cls-25{fill:#ebebeb;}.cls-26{fill:#dcdcdc;}</style></defs><path class="cls-1" d="M.27,0Q209.16,0,418.05,0c.84,0,1.08.11,1.08,1q0,100,0,200.1a2.26,2.26,0,0,1-1.18.11H1.52c-1.5,0-1.35.16-1.35-1.33V1.21A2.4,2.4,0,0,1,.27,0Z"/><path class="cls-2" d="M.27,0q0,99.78,0,199.57c0,1.76-.2,1.55,1.58,1.55H419.1c-.05.07.11.23-.11.22s-.58,0-.87,0q-208.55,0-417.08,0c-.82,0-1-.18-1-1Q.07,100.69.07,1C.07.68-.18.26.27,0Z"/><path class="cls-3" d="M235.16,106.38c0-.4-.06-.8-.06-1.2q0-35,0-69.93c0-.9.15-1.25,1.17-1.23,3.34.07,6.68,0,10,0,.78,0,1.06.15,1.06,1q0,35.34,0,70.69c0,.21,0,.43-.06.65a1.83,1.83,0,0,1-1.43.35q-4.6,0-9.23,0A1.84,1.84,0,0,1,235.16,106.38Z"/><path class="cls-3" d="M204.86,106.38c0-.4-.06-.8-.06-1.2q0-34.25,0-68.51c0-1.15.34-1.36,1.39-1.34,3.12.07,6.25,0,9.37,0,1.67,0,1.47-.21,1.47,1.42q0,23.25,0,46.51,0,10.89,0,21.78c0,.44,0,.87-.05,1.31a1.84,1.84,0,0,1-1.43.35q-4.62,0-9.23,0A1.83,1.83,0,0,1,204.86,106.38Z"/><path class="cls-3" d="M174.55,106.38c0-.4-.06-.8-.06-1.2q0-33.48,0-67c0-1.16.34-1.37,1.4-1.35,3,.07,6.1,0,9.15,0,1.67,0,1.47-.2,1.47,1.42v66.77c0,.44,0,.87-.06,1.31a1.83,1.83,0,0,1-1.43.35q-4.5,0-9,0A1.84,1.84,0,0,1,174.55,106.38Z"/><path class="cls-3" d="M144,106.38c0-.4-.06-.8-.06-1.2q0-32.84,0-65.68c0-1.15.34-1.36,1.39-1.34,3.12.07,6.25,0,9.37,0,1.67,0,1.47-.21,1.47,1.42q0,21.84,0,43.68,0,10.89,0,21.78c0,.44,0,.87,0,1.31a1.84,1.84,0,0,1-1.43.35q-4.62,0-9.23,0A1.83,1.83,0,0,1,144,106.38Z"/><path class="cls-3" d="M113.72,106.38c0-.4-.06-.8-.06-1.2q0-32.18,0-64.37c0-1.15.34-1.36,1.4-1.34,3.12.07,6.24,0,9.37,0,1.66,0,1.47-.21,1.47,1.42v64.15c0,.44,0,.87-.06,1.31a1.83,1.83,0,0,1-1.43.35c-3.08,0-6.15,0-9.23,0A1.84,1.84,0,0,1,113.72,106.38Z"/><path class="cls-3" d="M83.42,106.38c0-.4-.06-.8-.06-1.2q0-31.53,0-63.06c0-1.15.34-1.37,1.39-1.34,3.12.07,6.25,0,9.37,0,1.67,0,1.47-.2,1.47,1.43q0,20.52,0,41.06,0,10.89,0,21.78c0,.44,0,.87,0,1.31a1.84,1.84,0,0,1-1.43.35q-4.62,0-9.23,0A1.83,1.83,0,0,1,83.42,106.38Z"/><path class="cls-4" d="M235.16,106.38h12.09c0,.39.06.79.06,1.19q0,30.81,0,61.62c0,.94-.16,1.31-1.22,1.29-3.3-.08-6.61,0-9.91,0-.81,0-1.12-.15-1.12-1.06q0-31.08,0-62.17C235.1,107,235.14,106.67,235.16,106.38Z"/><path class="cls-3" d="M53.11,106.38c0-.4-.06-.8-.06-1.2q0-31.2,0-62.41c0-1.15.34-1.36,1.4-1.34,3,.07,6.1,0,9.15,0,1.67,0,1.47-.21,1.47,1.42v62.3c0,.4,0,.8-.06,1.2a1.83,1.83,0,0,1-1.43.35q-4.5,0-9,0A1.84,1.84,0,0,1,53.11,106.38Z"/><path class="cls-4" d="M204.86,106.38H217c0,.39.05.79.05,1.19q0,27.81,0,55.63c0,1.54.19,1.36-1.41,1.36-3.27,0-6.54,0-9.81,0-.72,0-1-.15-1-.94q0-28.3,0-56.61C204.8,106.81,204.84,106.59,204.86,106.38Z"/><path class="cls-4" d="M174.55,106.38h11.87c0,.39.06.79.06,1.19V158c0,1.54.18,1.36-1.42,1.36-3.19,0-6.39,0-9.58,0-.72,0-1-.14-1-.94q0-25.69,0-51.38C174.49,106.81,174.53,106.59,174.55,106.38Z"/><path class="cls-4" d="M144,106.38h12.09c0,.39,0,.79,0,1.19q0,22.86,0,45.72c0,.94-.16,1.31-1.22,1.28-3.33-.07-6.68,0-10,0-.72,0-1-.14-1-.95q0-23.3,0-46.58C144,106.81,144,106.59,144,106.38Z"/><path class="cls-4" d="M113.72,106.38h12.09c0,.39.06.79.06,1.19V153c0,1.54.18,1.36-1.42,1.37-3.27,0-6.53,0-9.8,0-.72,0-1-.14-1-.94q0-23.19,0-46.37C113.66,106.81,113.7,106.59,113.72,106.38Z"/><path class="cls-4" d="M83.42,106.38H95.51c0,.39,0,.79,0,1.19q0,22.59,0,45.17c0,1.55.19,1.36-1.41,1.37-3.27,0-6.54,0-9.81,0-.72,0-1-.14-1-.94q0-23.09,0-46.15C83.36,106.81,83.4,106.59,83.42,106.38Z"/><path class="cls-4" d="M53.11,106.38H65c0,.39.06.79.06,1.19v45c0,1.55.18,1.36-1.42,1.37-3.19,0-6.39,0-9.58,0-.72,0-1-.15-1-.95q0-23,0-45.93C53.05,106.81,53.09,106.59,53.11,106.38Z"/><path class="cls-5" d="M115.7,190.52c.53-1.47,1-2.68,1.39-3.93.27-.9.92-.65,1.49-.65.74,0,.46.61.47,1,0,1.53,0,3.05,0,4.58,0,.54-.13.77-.72.77s-.6-.35-.6-.78a25,25,0,0,0-.13-3.21c-.39,1.07-.77,2.15-1.17,3.22-.13.35-.17.77-.75.77s-.6-.42-.74-.78a31.82,31.82,0,0,0-1.3-3.16c0,1.08,0,2.16,0,3.23,0,.5-.12.71-.66.71s-.67-.23-.66-.72c0-1.56,0-3.12,0-4.68,0-.34-.24-.91.42-.91s1.24-.33,1.52.58C114.7,187.8,115.18,189.05,115.7,190.52Z"/><path class="cls-6" d="M177.81,188c-.4,1.1-.75,2.12-1.16,3.11-.17.42-.08,1.08-.82,1.1s-.71-.7-.9-1.15c-.42-1-.76-2-1.14-3,0,1.19,0,2.31,0,3.42,0,.53-.11.78-.72.78s-.61-.33-.61-.76c0-1.56,0-3.12,0-4.68,0-.34-.21-.9.45-.88s1.17-.29,1.43.56a22.25,22.25,0,0,0,1.53,3.73c.42-1.19.83-2.38,1.26-3.57.13-.36.21-.73.77-.75.81,0,1.27.05,1.21,1.07-.09,1.51,0,3,0,4.56,0,.49-.11.72-.66.72s-.67-.25-.66-.73C177.82,190.41,177.81,189.29,177.81,188Z"/><path class="cls-5" d="M359,189.63c0-1,0-1.92,0-2.87,0-.46,0-.85.66-.85s.68.34.68.82c0,1.53,0,3.05,0,4.58,0,.32.21.81-.32.9s-1,.16-1.31-.44a23.2,23.2,0,0,0-2.21-3.27c0,1,0,2,0,3,0,.54-.1.79-.71.78s-.61-.32-.61-.76c0-1.56,0-3.12,0-4.68,0-.31-.22-.8.34-.88s.91-.11,1.23.44c.63,1.12,1.34,2.2,2,3.3Z"/><path class="cls-5" d="M385.8,189.1a3.47,3.47,0,0,1,0-1c.22-.73-.63-1.84.49-2.16a3.4,3.4,0,0,1,4.05,1.55,3.14,3.14,0,0,1-3,4.73c-.32,0-.65,0-1,0s-.63-.19-.62-.65C385.82,190.77,385.8,189.93,385.8,189.1Z"/><path class="cls-6" d="M331,189a4,4,0,0,1-.33,2,2.47,2.47,0,0,1-2.39,1.42,2.4,2.4,0,0,1-2.31-1.53,4.29,4.29,0,0,1-.1-3.19,2.46,2.46,0,0,1,2.57-1.76,2.55,2.55,0,0,1,2.4,1.87A4.7,4.7,0,0,1,331,189Z"/><path class="cls-5" d="M277.82,192a1.71,1.71,0,0,1-2.49-.46,3.44,3.44,0,0,1-.07-3.21,1.63,1.63,0,0,1,1.42-.86,4.87,4.87,0,0,0,2.05.11c.4-.13.43.25.43.56,0,1.41,0,2.82,0,4.23a1.73,1.73,0,0,1-1.38,1.62,2.54,2.54,0,0,1-2.27-.34c-.28-.19-.22-.39-.06-.64s.38-.26.7-.13C277.24,193.37,277.61,193.18,277.82,192Z"/><path class="cls-5" d="M14,10.35c1,1,1.11,1.85.45,2.64a2.57,2.57,0,0,1-3,.36,1.67,1.67,0,0,1-.41-2.6c.19-.23.47-.32.15-.76a1.6,1.6,0,0,1,.16-2.38,2.4,2.4,0,0,1,2.91.14,1.7,1.7,0,0,1-.14,2.41A2,2,0,0,0,14,10.35Z"/><path class="cls-5" d="M296.6,185.89a2.53,2.53,0,0,1,2.43.92c.18.28.52.68.12.93a.85.85,0,0,1-1.1-.13c-.09-.11-.14-.26-.24-.36a1.22,1.22,0,0,0-1.31-.23.59.59,0,0,0-.47.65c.06.47.47.61.84.75a6.5,6.5,0,0,1,1.77.82,1.66,1.66,0,0,1-.38,2.91,2.89,2.89,0,0,1-3.5-.9c-.15-.28-.39-.67-.06-.86a.8.8,0,0,1,1.15.19,1.6,1.6,0,0,0,.27.46,1.39,1.39,0,0,0,1.44.2.61.61,0,0,0,.45-.67c-.05-.52-.48-.67-.9-.82s-.62-.22-.92-.35c-1.15-.49-1.65-1.22-1.45-2.12A1.9,1.9,0,0,1,296.6,185.89Z"/><path class="cls-5" d="M22.73,177.68a5.55,5.55,0,0,1-.19,1.72,1.93,1.93,0,0,1-2,1.45,1.88,1.88,0,0,1-1.88-1.52,6.58,6.58,0,0,1,0-3.55,1.8,1.8,0,0,1,1.8-1.44,1.86,1.86,0,0,1,2,1.2A5,5,0,0,1,22.73,177.68Z"/><path class="cls-5" d="M33,58.23A13.7,13.7,0,0,1,32.72,60a1.86,1.86,0,0,1-1.89,1.49,1.84,1.84,0,0,1-2-1.37,6.59,6.59,0,0,1,0-3.76,1.84,1.84,0,0,1,2-1.38,1.88,1.88,0,0,1,1.91,1.47A6.26,6.26,0,0,1,33,58.23Z"/><path class="cls-5" d="M27.94,58.16a13.62,13.62,0,0,1-.22,1.73,2,2,0,0,1-3.9.13,6.79,6.79,0,0,1,0-3.55,2,2,0,0,1,4,.08A12.42,12.42,0,0,1,27.94,58.16Z"/><path class="cls-5" d="M18.37,58.28a6,6,0,0,1,.18-1.85,1.92,1.92,0,0,1,2-1.5,1.83,1.83,0,0,1,1.91,1.46,6.66,6.66,0,0,1,0,3.65,1.82,1.82,0,0,1-1.85,1.4,1.89,1.89,0,0,1-2-1.36A4.9,4.9,0,0,1,18.37,58.28Z"/><path class="cls-5" d="M33,177.63a13.81,13.81,0,0,1-.25,1.71,1.89,1.89,0,0,1-2,1.51,1.91,1.91,0,0,1-1.95-1.57,6.73,6.73,0,0,1,0-3.45,1.81,1.81,0,0,1,1.77-1.49,1.9,1.9,0,0,1,2.06,1.25A6.71,6.71,0,0,1,33,177.63Z"/><path class="cls-5" d="M27.75,177.67a5.55,5.55,0,0,1-.2,1.72,1.92,1.92,0,0,1-2,1.46,1.89,1.89,0,0,1-1.89-1.52,6.65,6.65,0,0,1,0-3.54,1.81,1.81,0,0,1,1.8-1.45,1.88,1.88,0,0,1,2,1.2A5.16,5.16,0,0,1,27.75,177.67Z"/><path class="cls-5" d="M306.38,192.1c0,.48,0,1,0,1.41s-.14.65-.62.64-.67-.11-.67-.61c0-1.8,0-3.61,0-5.42,0-.35.14-.58.5-.51a5.75,5.75,0,0,0,1.94-.08,1.46,1.46,0,0,1,1.53,1,3.45,3.45,0,0,1,0,2.73C308.65,192.35,308,192.55,306.38,192.1Z"/><path class="cls-5" d="M18.37,10.52a5.56,5.56,0,0,1,.23-2,1.9,1.9,0,0,1,2.09-1.36A1.84,1.84,0,0,1,22.5,8.76a7.38,7.38,0,0,1,0,3.24,2,2,0,0,1-3.95.2A5,5,0,0,1,18.37,10.52Z"/><path class="cls-5" d="M27.94,10.4c-.06.55-.08,1.1-.19,1.63a1.93,1.93,0,0,1-1.88,1.67,1.87,1.87,0,0,1-2-1.43,6.59,6.59,0,0,1,0-3.55,1.85,1.85,0,0,1,2.07-1.54A1.86,1.86,0,0,1,27.76,8.9C27.86,9.39,27.88,9.9,27.94,10.4Z"/><path class="cls-5" d="M28.62,10.47a5.29,5.29,0,0,1,.23-2,1.9,1.9,0,0,1,2-1.33,1.83,1.83,0,0,1,1.87,1.5,6.93,6.93,0,0,1,0,3.56,2,2,0,0,1-3.84.13A4.82,4.82,0,0,1,28.62,10.47Z"/><path class="cls-6" d="M148.87,192.15c-.78.16-1.43.28-1.64-.7-.17-.82-.86-.47-1.34-.5s-1.06-.22-1.25.51a1.82,1.82,0,0,1-.18.51c-.3.49-.81.32-1.17.22s-.08-.49,0-.71c.6-1.67,1.23-3.33,1.84-5a.73.73,0,0,1,.78-.58c.41,0,.68.09.84.51C147.44,188.32,148.15,190.21,148.87,192.15Z"/><path class="cls-5" d="M33,129.82a6.42,6.42,0,0,1-.34,2,1.86,1.86,0,0,1-1.87,1.23,1.81,1.81,0,0,1-1.9-1.33,6.57,6.57,0,0,1-.07-3.65,1.9,1.9,0,0,1,2.08-1.53,1.87,1.87,0,0,1,1.88,1.63A14.49,14.49,0,0,1,33,129.82Z"/><path class="cls-5" d="M22.76,129.86a6.27,6.27,0,0,1-.22,1.73,1.94,1.94,0,0,1-2.11,1.5,1.9,1.9,0,0,1-1.85-1.68,7.15,7.15,0,0,1,0-3c.3-1.27.93-1.81,2.08-1.8s1.77.59,2,1.87A13,13,0,0,1,22.76,129.86Z"/><path class="cls-6" d="M269.37,192.13c-.84.22-1.41.22-1.65-.73s-1-.39-1.49-.45-.91-.16-1.06.46a1.79,1.79,0,0,1-.23.61c-.29.41-.76.27-1.1.18s-.13-.48,0-.71c.61-1.67,1.23-3.33,1.84-5,.14-.39.34-.61.79-.57s.62,0,.78.41C267.9,188.26,268.64,190.18,269.37,192.13Z"/><path class="cls-5" d="M27.77,129.87a5.72,5.72,0,0,1-.28,1.93,1.89,1.89,0,0,1-1.94,1.29,1.84,1.84,0,0,1-1.91-1.47,6.82,6.82,0,0,1-.09-3.24c.3-1.27.93-1.81,2.08-1.79s1.77.59,2,1.88C27.73,128.92,27.73,129.4,27.77,129.87Z"/><path class="cls-5" d="M93.57,187.84c1-.44,1.9-.5,2.56.44a3.6,3.6,0,0,1,0,3.42,1.5,1.5,0,0,1-1.42.65,3.38,3.38,0,0,0-1.84-.12c-.42.14-.53-.19-.53-.58,0-1.81,0-3.62,0-5.44,0-.44.12-.66.6-.67s.73.18.69.7S93.57,187.25,93.57,187.84Z"/><path class="cls-5" d="M22.73,153.81a5.49,5.49,0,0,1-.2,1.71A1.91,1.91,0,0,1,20.48,157a1.86,1.86,0,0,1-1.87-1.52,7,7,0,0,1,0-3.55,1.82,1.82,0,0,1,1.73-1.42,1.87,1.87,0,0,1,2,1A4.77,4.77,0,0,1,22.73,153.81Z"/><path class="cls-5" d="M27.75,153.73a5.67,5.67,0,0,1-.22,1.83,1.88,1.88,0,0,1-2,1.39,1.86,1.86,0,0,1-1.93-1.45,6.77,6.77,0,0,1,0-3.76,1.8,1.8,0,0,1,1.83-1.29,1.84,1.84,0,0,1,1.86,1.06A4.85,4.85,0,0,1,27.75,153.73Z"/><path class="cls-5" d="M33,153.74a5.61,5.61,0,0,1-.22,1.82,1.88,1.88,0,0,1-2,1.39,1.83,1.83,0,0,1-1.88-1.35,6.68,6.68,0,0,1,0-3.86,1.78,1.78,0,0,1,1.82-1.29,1.85,1.85,0,0,1,1.87,1.06A5,5,0,0,1,33,153.74Z"/><path class="cls-5" d="M18.37,82a4.83,4.83,0,0,1,.26-1.92,1.93,1.93,0,0,1,2.18-1.22,1.82,1.82,0,0,1,1.7,1.56,7.25,7.25,0,0,1,0,3.34,1.85,1.85,0,0,1-1.84,1.56,1.9,1.9,0,0,1-2.07-1.39A5.49,5.49,0,0,1,18.37,82Z"/><path class="cls-5" d="M23.6,81.93a4.7,4.7,0,0,1,.25-1.82A1.94,1.94,0,0,1,26,78.84a1.8,1.8,0,0,1,1.73,1.53,7.07,7.07,0,0,1,0,3.45,1.82,1.82,0,0,1-1.88,1.49,1.88,1.88,0,0,1-2-1.35A5.58,5.58,0,0,1,23.6,81.93Z"/><path class="cls-5" d="M28.62,82A4.53,4.53,0,0,1,28.89,80,1.92,1.92,0,0,1,31,78.84a1.81,1.81,0,0,1,1.76,1.5,7.27,7.27,0,0,1,0,3.44,1.82,1.82,0,0,1-1.86,1.53,1.87,1.87,0,0,1-2-1.31A5.43,5.43,0,0,1,28.62,82Z"/><path class="cls-5" d="M18.33,34.26a6.66,6.66,0,0,1,.23-1.72,1.87,1.87,0,0,1,2.12-1.45,1.82,1.82,0,0,1,1.85,1.65,7.7,7.7,0,0,1,0,2.91c-.22,1.23-.8,1.83-1.86,1.88a1.9,1.9,0,0,1-2.2-1.76C18.39,35.27,18.38,34.76,18.33,34.26Z"/><path class="cls-5" d="M23.56,34.25a6.66,6.66,0,0,1,.23-1.72,1.88,1.88,0,0,1,2.13-1.44,1.83,1.83,0,0,1,1.84,1.66,7.7,7.7,0,0,1,0,2.91c-.22,1.22-.8,1.82-1.87,1.87a1.91,1.91,0,0,1-2.19-1.77A14.84,14.84,0,0,1,23.56,34.25Z"/><path class="cls-5" d="M28.58,34.27a6.62,6.62,0,0,1,.25-1.83,1.9,1.9,0,0,1,2.09-1.36,1.85,1.85,0,0,1,1.85,1.65,7.5,7.5,0,0,1,0,2.91c-.23,1.28-.83,1.88-2,1.9a1.89,1.89,0,0,1-2.09-1.77A12.5,12.5,0,0,1,28.58,34.27Z"/><path class="cls-5" d="M12.07,33.31c2.18,0,2.9.57,2.82,2.21a1.92,1.92,0,0,1-1.57,2,2,2,0,0,1-2.4-1c-1.07-2,0-4.85,2-5.26.33-.07.83-.36,1,.2s-.24.71-.7.82A1.35,1.35,0,0,0,12.07,33.31Z"/><path class="cls-5" d="M12,176.7c2.17-.38,3.2.56,2.87,2.46a1.9,1.9,0,0,1-1.44,1.59,2,2,0,0,1-2.19-.58c-1.56-1.74-.46-5.23,1.8-5.72.31-.07.81-.42.93.27.09.48-.11.68-.63.75A1.58,1.58,0,0,0,12,176.7Z"/><path class="cls-7" d="M82.56,189.05c0-.83,0-1.66,0-2.5,0-.45.18-.64.65-.63,1,0,2,0,2.93,0,.42,0,.59.16.6.57s-.29.5-.64.49-.88,0-1.31,0c-.61-.06-.92.07-.91.8s.32.87.93.82c.36,0,.72,0,1.09,0s.51.16.5.52,0,.66-.43.59c-1.69-.3-2.4.33-2.08,2.06.09.47-.31.47-.65.48s-.7-.08-.68-.59C82.58,190.79,82.56,189.92,82.56,189.05Z"/><path class="cls-6" d="M150.77,192.06c0,.56,0,1,0,1.5s-.14.58-.57.58-.65-.15-.65-.62c0-1.78,0-3.56,0-5.33,0-.25,0-.68.32-.55.86.38,1.65-.27,2.47,0,1.13.29,1.74,1.76,1.33,3.26S152.45,192.6,150.77,192.06Z"/><path class="cls-8" d="M13.57,150.58c.67-.13.81.19.79.73,0,.76,0,1.52,0,2.28,0,.38-.13.84.47.92a.25.25,0,0,1,.17.12c.1.25.09.71,0,.71-1.08,0-.1,1.74-1.35,1.54-.26,0-.58,0-.53-.37.15-1.24-.71-1-1.4-1-.41,0-.95.24-1.19-.25s.12-.89.38-1.29c.61-1,1.21-1.9,1.79-2.86C12.9,150.73,13.13,150.43,13.57,150.58Z"/><path class="cls-5" d="M13.58,55c.56-.11.69.18.67.67q0,1.14,0,2.28c0,.43-.21,1,.54,1.07a.23.23,0,0,1,.14.15c0,.21,0,.42,0,.63-1.19-.09-.18,1.65-1.33,1.6-.36,0-.7-.06-.64-.52.12-.87-.38-.9-1-.9-.51,0-1.19.3-1.51-.22s.25-1.06.54-1.53c.54-.9,1.12-1.77,1.68-2.66C12.88,55.2,13.09,54.87,13.58,55Z"/><path class="cls-5" d="M12.27,84.23c.81,0,1.42,0,2,0,.4,0,.59.12.59.56s-.26.44-.57.44c-1,0-2,0-3.05,0-.25,0-.62.17-.71-.25a.85.85,0,0,1,.2-.81c.65-.69,1.29-1.38,1.92-2.08a2,2,0,0,0,.7-1.31.8.8,0,0,0-.5-.87.81.81,0,0,0-1,.3,1.41,1.41,0,0,0-.19.39c-.26.49-.75.34-1.06.23s-.15-.56,0-.83a2.32,2.32,0,0,1,3.11-.92,1.83,1.83,0,0,1,.56,2.72C13.81,82.63,13,83.22,12.27,84.23Z"/><path class="cls-5" d="M12.31,132h2.12c.37,0,.51.17.51.53s-.18.5-.53.5c-1,0-2,0-3,0-.27,0-.62.14-.75-.24a.86.86,0,0,1,.25-.89c.61-.63,1.21-1.26,1.79-1.9a3,3,0,0,0,.73-1.07c.13-.45.14-.9-.32-1.14a.83.83,0,0,0-1.2.38c0,.09,0,.23-.11.3a.9.9,0,0,1-1.1.12c-.32-.16-.08-.51,0-.76a2.33,2.33,0,0,1,3.18-.92,1.85,1.85,0,0,1,.46,2.75,13.25,13.25,0,0,1-.88,1.1C13.15,131.05,12.83,131.38,12.31,132Z"/><path class="cls-8" d="M395.75,189.74c.1.52-.2.65-.69.64s-1,0-1.52,0c-.22,0-.57-.14-.64.21s.23.52.5.64a1.28,1.28,0,0,0,1.33-.16c.37-.27.52,0,.7.23s.06.38-.1.55a2.48,2.48,0,0,1-2.84.13,2.59,2.59,0,0,1-.83-3.11,2.09,2.09,0,0,1,2.34-1.33A2.07,2.07,0,0,1,395.75,189.74Z"/><path class="cls-5" d="M184.06,190.62a3.25,3.25,0,0,0,0,.54c.19,1-.12,1.39-1.09,1-.36-.15-.54.08-.8.15a1.56,1.56,0,0,1-2-.9c-.26-.9.25-1.63,1.31-1.87.21-.05.43-.05.65-.09s.55.13.63-.22a.71.71,0,0,0-.15-.5c-.19-.3-.5-.23-.78-.16a.39.39,0,0,0-.19.1c-.42.48-1.15.56-1.33.13s.44-.91,1-1.1a1.92,1.92,0,0,1,2.81,1.87C184.06,189.9,184.05,190.26,184.06,190.62Z"/><path class="cls-8" d="M87.35,189.79a2.23,2.23,0,0,1,2.14-2.3,2.09,2.09,0,0,1,2.13,2.13c0,.56-.11.8-.7.76a12.85,12.85,0,0,0-1.52,0c-.22,0-.56-.1-.6.27s.21.44.44.56a1.14,1.14,0,0,0,1.23-.07c.42-.31.68-.14.86.21s-.2.56-.45.71a2.34,2.34,0,0,1-2.47-.05A2.32,2.32,0,0,1,87.35,189.79Z"/><path class="cls-8" d="M300,189.75a2.19,2.19,0,0,1,2.16-2.27,2.1,2.1,0,0,1,2.1,2.16c0,.59-.17.77-.73.74s-1.09,0-1.63,0c-.17,0-.38,0-.45.19s.09.41.26.54a1.19,1.19,0,0,0,1.42,0c.36-.24.58-.18.8.14s-.07.59-.33.75a2.36,2.36,0,0,1-2.47,0C300.25,191.62,300,190.85,300,189.75Z"/><path class="cls-5" d="M186.79,190.44c.26-.87.5-1.48.62-2.11a.81.81,0,0,1,1.18-.7c.62.21.14.67,0,1-.47,1.44-1,2.88-1.49,4.31-.24.67-.61,1.24-1.45,1.26-.29,0-.61,0-.63-.4s-.06-.56.36-.66c.85-.2.79-.79.56-1.44-.37-1-.75-2.11-1.1-3.18-.09-.28-.5-.7.05-.85s1-.23,1.17.55A22,22,0,0,0,186.79,190.44Z"/><path class="cls-5" d="M61,190.45a3.09,3.09,0,0,0,0,.43c.21,1.08.15,1.84-1.28,1.17-.16-.07-.45.17-.69.24a1.56,1.56,0,0,1-1.95-.94,1.44,1.44,0,0,1,1.13-1.8,5,5,0,0,1,.86-.13c.32,0,.7,0,.58-.5s-.48-.47-.85-.4a.53.53,0,0,0-.28.16c-.38.43-1.06.47-1.23.16-.29-.55.3-.89.76-1.11a1.92,1.92,0,0,1,3,1.74C61,189.79,61,190.12,61,190.45Z"/><path class="cls-5" d="M123.93,190.48a2.43,2.43,0,0,0,0,.54c.24,1.09,0,1.6-1.21,1-.19-.09-.52.15-.79.23a1.59,1.59,0,0,1-1.94-1,1.46,1.46,0,0,1,1.18-1.79,4.05,4.05,0,0,1,.86-.12c.33,0,.7,0,.58-.51s-.42-.47-.77-.41a.65.65,0,0,0-.38.18c-.39.42-1,.47-1.23.14-.28-.53.3-.89.77-1.11,1.19-.54,3.13-.12,2.93,1.79a8,8,0,0,0,0,1Z"/><path class="cls-5" d="M213.76,189.94c0-.58,0-1.16,0-1.74s.24-.74.64-.58a3,3,0,0,0,1.82-.08,1.3,1.3,0,0,1,1.6,1.33c.09.94,0,1.88.06,2.82,0,.44-.16.58-.58.56s-.72,0-.7-.55c0-.76,0-1.52,0-2.28,0-.49-.12-.9-.7-.88a.79.79,0,0,0-.85.9c0,.69,0,1.38,0,2.07,0,.43,0,.75-.61.75s-.72-.29-.69-.8S213.75,190.45,213.76,189.94Z"/><path class="cls-5" d="M274.1,190c0,.29,0,.58,0,.87,0,1,.09,1.88-1.33,1.21-.07,0-.2.05-.3.07-1.84.43-2.45,0-2.48-1.94,0-.55,0-1.09,0-1.63s-.2-1,.61-1,.66.46.67.93c0,.69,0,1.37,0,2.06,0,.46.19.78.71.76s.82-.23.81-.79c0-.76,0-1.53,0-2.29,0-.43.07-.67.59-.66s.75.09.72.65S274.1,189.4,274.1,190Z"/><path class="cls-5" d="M361.26,189.87a2.18,2.18,0,0,1,2.13-2.39A2.28,2.28,0,0,1,365.7,190a2.23,2.23,0,1,1-4.44-.08Z"/><path class="cls-5" d="M212.85,189.94v.76c0,.9.29,2.13-1.37,1.33,0,0-.07,0-.1,0-2.37.27-2.64,0-2.64-2.36v-1.2c0-.48-.08-.93.68-.92s.59.45.59.87c0,.69,0,1.38,0,2.07,0,.49.2.85.78.81a.74.74,0,0,0,.78-.84c0-.76,0-1.52,0-2.28,0-.48.2-.62.65-.62s.66.12.64.61S212.85,189.36,212.85,189.94Z"/><path class="cls-5" d="M244.5,190c0,.36,0,.73,0,1.09.05.89,0,1.56-1.21,1-.16-.08-.46.12-.69.19a1.47,1.47,0,0,1-2.09-1.44c-.06-.86,0-1.73,0-2.6,0-.47.16-.63.63-.63s.61.24.59.67c0,.61,0,1.23,0,1.84s-.13,1.18.69,1.22.87-.56.86-1.18,0-1.23,0-1.84.14-.72.68-.72.6.25.58.67C244.48,188.83,244.5,189.41,244.5,190Z"/><path class="cls-5" d="M61.94,189.92c0-.54,0-1.09,0-1.62s.35-.92.74-.66c.57.38,1,.05,1.43-.06.93-.22,1.67.15,1.77,1.06s.07,2.1.09,3.15c0,.49-.35.44-.68.45s-.54-.11-.53-.49c0-.76,0-1.52,0-2.28,0-.51-.15-1-.8-.93s-.77.43-.76,1,0,1.37,0,2.06c0,.53-.2.68-.7.68s-.56-.32-.55-.71C62,191,61.94,190.47,61.94,189.92Z"/><path class="cls-9" d="M207.79,188.51c0,.8,0,1.6-.16,2.38a1.76,1.76,0,0,1-1.77,1.47,2,2,0,0,1-2.13-1c-.15-.26-.41-.68-.09-.86a.82.82,0,0,1,1.15.14c.27.46.54.81,1.1.58s.5-.74.5-1.2c0-1.12,0-2.24,0-3.36,0-.53.13-.79.73-.78s.63.32.63.76c0,.61,0,1.23,0,1.84Z"/><path class="cls-5" d="M239.41,188.51c0,.69.05,1.39,0,2.07a1.85,1.85,0,0,1-1.67,1.75,2.07,2.07,0,0,1-2.28-.89c-.18-.29-.45-.73-.06-.94s.89-.3,1.13.25.54.69,1,.52.57-.62.57-1.08c0-1.12,0-2.25,0-3.37,0-.49-.07-.93.69-.91s.63.41.62.86v1.74Z"/><path class="cls-6" d="M56.07,188.46c0,.69,0,1.38,0,2.07a1.83,1.83,0,0,1-1.61,1.78,2.14,2.14,0,0,1-2.31-.81c-.21-.3-.42-.75-.1-1a.74.74,0,0,1,1.13.18c.22.47.52.72,1,.56s.61-.66.6-1.17c0-1.16,0-2.32,0-3.48,0-.48.09-.72.65-.72s.7.19.68.7,0,1.23,0,1.85Z"/><path class="cls-5" d="M333,189.94c0,.51,0,1.06.54,1.32a.86.86,0,0,0,1.11-.39.78.78,0,0,1,1.08-.08c.26.26-.07.67-.31.93a2,2,0,0,1-2.28.51,2.54,2.54,0,0,1-1.24-3.31,2.07,2.07,0,0,1,2.72-1.29,1.35,1.35,0,0,1,.79.53c.23.34.65.77.23,1.11a.71.71,0,0,1-1.09-.33.69.69,0,0,0-.92-.37C333,188.81,333,189.39,333,189.94Z"/><path class="cls-5" d="M397.51,189.92c0,.55,0,1.05.5,1.31s.85,0,1.2-.39a.77.77,0,0,1,1-.08c.34.3,0,.66-.24.92a2,2,0,0,1-2.26.56A2.47,2.47,0,0,1,396.4,189a2.06,2.06,0,0,1,2.78-1.33,1.8,1.8,0,0,1,.71.47c.27.32.67.79.3,1.12a.73.73,0,0,1-1.16-.34.67.67,0,0,0-.93-.32C397.5,188.87,397.52,189.44,397.51,189.92Z"/><path class="cls-5" d="M368.15,190.49a7.09,7.09,0,0,0,.75-2.28c.15-.68.59-.7,1.05-.59.67.17.21.63.12.92-.32,1-.71,2.05-1,3.09a.75.75,0,0,1-.84.63.76.76,0,0,1-.84-.63c-.33-1.11-.74-2.19-1.09-3.29-.08-.23-.4-.6.07-.7s.9-.28,1.09.35C367.67,188.78,367.89,189.58,368.15,190.49Z"/><path class="cls-5" d="M338.25,192.39a1.26,1.26,0,0,1-1.32-1.22c0-.58,0-1.16,0-1.74,0-.37.24-.93-.5-1,0,0-.1-.09-.13-.15-.18-.35.81-1.89,1.22-1.9s.74,0,.72.55a.55.55,0,0,0,.26.63c.7.42.7.49,0,.9a.49.49,0,0,0-.24.63c.21.8-.64,1.94.77,2.37.06,0,.08.42,0,.6S338.5,192.37,338.25,192.39Z"/><path class="cls-5" d="M246.85,188.94c0,.87,0,1.74,0,2.61,0,.49-.12.71-.66.71s-.65-.25-.65-.72c0-1.78,0-3.56,0-5.33,0-.44.08-.68.59-.67s.74.13.71.68C246.82,187.12,246.85,188,246.85,188.94Z"/><path class="cls-10" d="M125,189.94V188.2c0-.3,0-.66.42-.59a2.9,2.9,0,0,0,1.86-.09c.22-.12.4.15.36.39s.24.78-.27.79c-1.21,0-1.15.84-1.12,1.67,0,.43,0,.87,0,1.3s-.27.58-.69.58-.58-.16-.57-.57C125,191.1,125,190.52,125,189.94Z"/><path class="cls-6" d="M154.57,189.94c0-.57,0-1.15,0-1.73,0-.24-.05-.62.3-.58a4.27,4.27,0,0,0,2-.1c.23-.08.34.23.3.46s.15.69-.28.71c-1.36,0-1.16,1-1.15,1.85,0,.33,0,.66,0,1,0,.47-.08.74-.64.73s-.59-.28-.58-.69S154.57,190.49,154.57,189.94Z"/><path class="cls-11" d="M8.41,153.6c.45.12.92-.17,1.18.24.13.21.19.68-.12.77a4.35,4.35,0,0,1-2.15,0c-.29-.06-.3-.54-.15-.77C7.5,153.36,8.06,153.81,8.41,153.6Z"/><path class="cls-12" d="M27.16,105.88h.76a.4.4,0,0,1,.46.46c0,.33-.08.57-.46.58l-1.3,0c-.42,0-.82,0-.79-.6s.46-.44.79-.46a4.87,4.87,0,0,1,.54,0Z"/><path class="cls-13" d="M8.36,130.77H7.82c-.36,0-.74,0-.71-.52s.39-.51.76-.51H8.94c.38,0,.71,0,.71.55s-.43.45-.75.47Z"/><path class="cls-13" d="M8.32,178.53H7.56a.41.41,0,0,1-.45-.47c0-.33.09-.58.47-.58h1.3c.42,0,.8,0,.77.61s-.46.41-.79.45a4.86,4.86,0,0,1-.54,0Z"/><path class="cls-14" d="M16.63,36.19c.41.07.68.28.65.72s-.34.61-.75.58a.56.56,0,0,1-.59-.63C15.94,36.41,16.21,36.22,16.63,36.19Z"/><path class="cls-14" d="M16.6,156.91a.62.62,0,0,1-.62-.72.63.63,0,0,1,.77-.58.59.59,0,0,1,.57.66C17.31,156.72,17.05,156.91,16.6,156.91Z"/><path class="cls-10" d="M16.64,12.33c.4.08.68.26.64.71a.62.62,0,0,1-.76.57.58.58,0,0,1-.59-.64C16,12.52,16.24,12.36,16.64,12.33Z"/><path class="cls-15" d="M17.29,84.64a.63.63,0,0,1-.76.61.57.57,0,0,1-.59-.63.6.6,0,0,1,.69-.66A.64.64,0,0,1,17.29,84.64Z"/><path class="cls-11" d="M16.6,61.41c-.43-.07-.69-.27-.67-.71a.59.59,0,0,1,.65-.59c.41,0,.7.18.7.64S17,61.35,16.6,61.41Z"/><path class="cls-15" d="M16.7,180.81c-.44-.09-.75-.25-.73-.71s.35-.61.75-.59a.59.59,0,0,1,.61.62C17.34,180.59,17,180.74,16.7,180.81Z"/><path class="cls-15" d="M17.33,132.3c0,.5-.25.71-.68.7a.61.61,0,0,1-.68-.56.62.62,0,0,1,.64-.71A.61.61,0,0,1,17.33,132.3Z"/><path class="cls-16" d="M387.11,189v-1c0-1.11.47-1.4,1.42-.84s.88,1.43.8,2.3-.3,1.48-1.23,1.67c-.66.13-1.07.07-1-.75A13.26,13.26,0,0,0,387.11,189Z"/><path class="cls-17" d="M329.73,189.17a4.7,4.7,0,0,1-.05.76c-.12.74-.48,1.35-1.3,1.35s-1.22-.59-1.29-1.35a7.22,7.22,0,0,1,0-1.61c.09-.74.4-1.34,1.28-1.34s1.17.6,1.31,1.33A4.91,4.91,0,0,1,329.73,189.17Z"/><path class="cls-18" d="M277.88,189.92c-.08.5.3,1.37-.74,1.39-.89,0-1-.72-1-1.38s.15-1.39,1-1.38S277.88,189.27,277.88,189.92Z"/><path class="cls-18" d="M13.56,11.79c-.08.53-.34.87-.9.86a.79.79,0,0,1-.84-.9.76.76,0,0,1,.87-.85C13.26,10.91,13.5,11.26,13.56,11.79Z"/><path class="cls-16" d="M12.79,8.2a.68.68,0,0,1,.59.76c0,.45-.13.81-.63.85S12,9.5,12,9,12.14,8.22,12.79,8.2Z"/><path class="cls-17" d="M21.41,177.64a11.26,11.26,0,0,1,0,1.3c-.06.45-.28.84-.82.85a.79.79,0,0,1-.8-.75,8.37,8.37,0,0,1,0-2.91.75.75,0,0,1,.79-.73c.55,0,.77.37.82.83A11.06,11.06,0,0,1,21.41,177.64Z"/><path class="cls-17" d="M31.67,57.86a7.43,7.43,0,0,1-.13,1.88c-.13.37-.32.65-.76.65a.72.72,0,0,1-.77-.63,9.2,9.2,0,0,1,0-3.14.71.71,0,0,1,.76-.63.72.72,0,0,1,.78.62A12.35,12.35,0,0,1,31.67,57.86Z"/><path class="cls-17" d="M24.86,58.2c0-.47,0-1,.07-1.41a.8.8,0,0,1,.75-.8.79.79,0,0,1,.89.77,8.94,8.94,0,0,1,0,2.92.75.75,0,0,1-.81.71.81.81,0,0,1-.77-.78A13.34,13.34,0,0,1,24.86,58.2Z"/><path class="cls-17" d="M19.62,58.25c0-.54,0-1,.09-1.48a.78.78,0,0,1,.76-.78.76.76,0,0,1,.84.69,8.51,8.51,0,0,1,0,3,.76.76,0,0,1-.84.69.76.76,0,0,1-.72-.7A12.69,12.69,0,0,1,19.62,58.25Z"/><path class="cls-17" d="M31.64,177.6a11.06,11.06,0,0,1,0,1.41.8.8,0,0,1-.76.78.77.77,0,0,1-.83-.71,8,8,0,0,1,0-3,.76.76,0,0,1,.74-.68.77.77,0,0,1,.83.7,12.49,12.49,0,0,1,.1,1.51Z"/><path class="cls-17" d="M26.43,177.58c0,.43,0,.87,0,1.3a.87.87,0,0,1-.76.91c-.55.05-.81-.34-.88-.79a8.37,8.37,0,0,1,0-2.91.77.77,0,0,1,.83-.7.81.81,0,0,1,.77.78,11,11,0,0,1,0,1.41Z"/><path class="cls-16" d="M308.11,189.67a2.09,2.09,0,0,1-.26,1.34.78.78,0,0,1-.86.31.68.68,0,0,1-.6-.66c0-.25,0-.5,0-.75,0-.63-.09-1.36.8-1.35S308.09,189.31,308.11,189.67Z"/><path class="cls-19" d="M19.68,10.4c0-.43,0-.86,0-1.29a.83.83,0,0,1,.77-.89.8.8,0,0,1,.87.78,9.1,9.1,0,0,1,0,2.9c-.08.4-.3.75-.79.74s-.75-.39-.82-.84-.05-.93-.07-1.4Z"/><path class="cls-19" d="M26.66,10.21A6.45,6.45,0,0,1,26.52,12c-.13.36-.32.65-.74.66a.77.77,0,0,1-.82-.71,11.24,11.24,0,0,1,0-3,.77.77,0,0,1,.72-.7.75.75,0,0,1,.85.66C26.61,9.41,26.63,9.94,26.66,10.21Z"/><path class="cls-19" d="M29.87,10.41c0-.53,0-1,.09-1.47a.77.77,0,0,1,.8-.72.73.73,0,0,1,.77.63,7.51,7.51,0,0,1,0,3.2.71.71,0,0,1-.79.59A.75.75,0,0,1,30,12,14.22,14.22,0,0,1,29.87,10.41Z"/><path class="cls-20" d="M146,187.75c.17.48.34.9.46,1.34.07.25.36.57,0,.78a1.15,1.15,0,0,1-1.05,0c-.46-.19-.12-.56,0-.83A2.79,2.79,0,0,1,146,187.75Z"/><path class="cls-17" d="M31.66,129.84c0,.43,0,.87,0,1.3s-.26.86-.78.9-.79-.36-.86-.81a9.2,9.2,0,0,1,0-2.82c.08-.46.35-.83.88-.79s.73.45.76.91S31.66,129.4,31.66,129.84Z"/><path class="cls-19" d="M21.4,129.85a11,11,0,0,1,0,1.41.8.8,0,0,1-.77.78.77.77,0,0,1-.82-.72,8.42,8.42,0,0,1,0-2.92.81.81,0,0,1,1.62,0,11.06,11.06,0,0,1,0,1.41Z"/><path class="cls-21" d="M266.37,187.79a2.56,2.56,0,0,1,.59,1.26c.09.27.41.62,0,.84a1.08,1.08,0,0,1-1,0c-.36-.23-.06-.57,0-.86S266.21,188.27,266.37,187.79Z"/><path class="cls-19" d="M26.48,129.91a13,13,0,0,1-.1,1.43.78.78,0,0,1-.73.7.72.72,0,0,1-.8-.59,7.19,7.19,0,0,1,0-3.23.74.74,0,0,1,.8-.6.76.76,0,0,1,.74.69C26.45,128.84,26.45,129.39,26.48,129.91Z"/><path class="cls-18" d="M95.34,190a5.14,5.14,0,0,1-.23.84.75.75,0,0,1-.88.45.7.7,0,0,1-.65-.73c0-.25,0-.5,0-.76,0-.64,0-1.32.87-1.28S95.26,189.32,95.34,190Z"/><path class="cls-19" d="M21.4,153.71a13.25,13.25,0,0,1,0,1.41.79.79,0,0,1-.76.79.77.77,0,0,1-.83-.71,8.19,8.19,0,0,1,0-2.92c.07-.44.31-.85.87-.79a.88.88,0,0,1,.77.91c0,.44,0,.87,0,1.31Z"/><path class="cls-19" d="M26.41,153.71a11.21,11.21,0,0,1,0,1.42.79.79,0,0,1-.76.78.77.77,0,0,1-.83-.71,8.19,8.19,0,0,1,0-2.92c.07-.45.31-.85.86-.79a.87.87,0,0,1,.77.92c0,.43,0,.87,0,1.3Z"/><path class="cls-19" d="M31.66,153.71c0,.43,0,.87,0,1.3s-.24.86-.77.9-.8-.35-.87-.81a8.55,8.55,0,0,1,0-2.81c.08-.45.31-.86.86-.8a.86.86,0,0,1,.77.91C31.69,152.83,31.66,153.27,31.66,153.71Z"/><path class="cls-16" d="M21.42,82a6.13,6.13,0,0,1-.14,1.69.8.8,0,0,1-.78.63.75.75,0,0,1-.75-.66,9.61,9.61,0,0,1,0-3.12.77.77,0,0,1,.74-.68.83.83,0,0,1,.8.62A5.86,5.86,0,0,1,21.42,82Z"/><path class="cls-16" d="M24.85,82.08A12.79,12.79,0,0,1,25,80.56a.79.79,0,0,1,1.56-.06,8.34,8.34,0,0,1,0,3.11.78.78,0,0,1-1.56,0C24.89,83.08,24.88,82.58,24.85,82.08Z"/><path class="cls-16" d="M29.87,82.06c0-.5,0-1,.09-1.44a.8.8,0,0,1,.76-.78.78.78,0,0,1,.83.7,8.69,8.69,0,0,1,0,3,.78.78,0,0,1-.8.74.79.79,0,0,1-.79-.76C29.9,83,29.9,82.53,29.87,82.06Z"/><path class="cls-19" d="M19.62,34.33c0-.53,0-1,.09-1.47a.82.82,0,0,1,.77-.78.76.76,0,0,1,.82.72,8.07,8.07,0,0,1,0,3,.79.79,0,0,1-1.56,0C19.65,35.29,19.65,34.78,19.62,34.33Z"/><path class="cls-19" d="M24.86,34.24c0-.44,0-.88.07-1.31a.84.84,0,0,1,.82-.85.78.78,0,0,1,.8.75,8.94,8.94,0,0,1,0,2.92.78.78,0,0,1-.8.75c-.54,0-.77-.38-.82-.85s0-.94,0-1.41Z"/><path class="cls-19" d="M29.86,34.16A13.15,13.15,0,0,1,30,32.74a.78.78,0,0,1,.77-.66.73.73,0,0,1,.77.63,8,8,0,0,1,0,3.13.73.73,0,0,1-.74.66.77.77,0,0,1-.82-.72C29.89,35.24,29.9,34.69,29.86,34.16Z"/><path class="cls-18" d="M11.82,35.28a.83.83,0,0,1,.89-1c.69,0,.9.5.91,1.09s-.16,1.14-.87,1.12S11.88,35.88,11.82,35.28Z"/><path class="cls-22" d="M13.74,178.66c-.07.55-.2,1.11-.89,1.13-.84,0-.92-.67-1-1.28s.34-.9.92-.92S13.65,178.08,13.74,178.66Z"/><path class="cls-23" d="M150.77,189.89c0-.63-.07-1.35.82-1.33s.9.77.9,1.43,0,1.33-.89,1.33S150.8,190.51,150.77,189.89Z"/><path class="cls-24" d="M13,152.34c.27,2.18.24,2.23-1.14,2.06A9.51,9.51,0,0,1,13,152.34Z"/><path class="cls-18" d="M13,57.23v1.24c0,.28-.09.51-.41.5s-.54.12-.7-.13.08-.39.18-.57c.22-.36.46-.72.68-1.08Z"/><path class="cls-24" d="M393.67,189.55c-.33-.08-.8.14-.81-.34a.73.73,0,0,1,.8-.7c.43,0,.81.21.79.67S393.89,189.38,393.67,189.55Z"/><path class="cls-25" d="M182.76,190.65c0,.54-.36.72-.85.71s-.65-.15-.59-.56.55-.57,1-.65S182.78,190.31,182.76,190.65Z"/><path class="cls-26" d="M89.52,189.54c-.27-.12-.82.23-.78-.38a.73.73,0,0,1,.85-.65c.39,0,.72.2.73.61C90.34,189.72,89.83,189.45,89.52,189.54Z"/><path class="cls-26" d="M302.13,189.54c-.28-.08-.75.15-.77-.32s.36-.69.79-.71a.66.66,0,0,1,.77.59C303,189.7,302.44,189.46,302.13,189.54Z"/><path class="cls-19" d="M59.7,190.58c0,.46-.25.74-.72.77s-.68,0-.71-.46c0-.6.44-.64.86-.72S59.68,190.22,59.7,190.58Z"/><path class="cls-16" d="M122.7,190.68c-.06.5-.39.69-.89.68-.33,0-.56-.18-.55-.52,0-.61.51-.6.93-.68S122.72,190.28,122.7,190.68Z"/><path class="cls-19" d="M364.41,189.94c0,.67-.08,1.35-.91,1.38s-1-.74-1-1.38.07-1.42,1-1.39S364.38,189.32,364.41,189.94Z"/></svg>