<svg id="Capa_1" data-name="Capa 1" xmlns="http://www.w3.org/2000/svg" viewBox="0 0 173.45 105.6"><defs><style>.cls-1{fill:#f3f3f3;}.cls-2{fill:#fcfbfb;}.cls-3{fill:#fcfcfc;}.cls-4{fill:#050505;}.cls-5{fill:#040404;}.cls-6{fill:#030303;}.cls-7{fill:#090909;}.cls-8{fill:#060606;}.cls-9{fill:#070707;}.cls-10{fill:#6d60da;}.cls-11{fill:#080808;}.cls-12{fill:#888;}.cls-13{fill:#1a8ff8;}.cls-14{fill:#f25f5e;}.cls-15{fill:#131313;}.cls-16{fill:#151515;}.cls-17{fill:#121212;}.cls-18{fill:#0a0a0a;}.cls-19{fill:#0b0b0b;}.cls-20{fill:#188ffe;}.cls-21{fill:#6c60dc;}.cls-22{fill:#f55d5d;}.cls-23{fill:#fafdfd;}.cls-24{fill:#898989;}.cls-25{fill:#eee;}.cls-26{fill:#f0f0f0;}.cls-27{fill:#e9e9e9;}.cls-28{fill:#eaeaea;}.cls-29{fill:#f1f1f1;}.cls-30{fill:#efefef;}.cls-31{fill:#e6e6e6;}.cls-32{fill:#dfdfdf;}.cls-33{fill:#ebebeb;}</style></defs><path class="cls-1" d="M0,42.55Q0,21.73,0,.9C0,.18.12,0,.88,0Q86.71,0,172.52,0c.82,0,.93.2.93,1q0,51.84,0,103.68c0,.76-.11,1-.93,1q-85.82,0-171.64,0c-.76,0-.88-.18-.88-.9q0-21,0-42.09c.58-.07.63.38.72.76a44.28,44.28,0,0,0,3.93,9.88,39.33,39.33,0,0,0,6.81,9.12,41,41,0,0,0,28,12.68,42.55,42.55,0,0,0,17.81-2.88,40.92,40.92,0,0,0,12.51-7.8,50.76,50.76,0,0,0,7.43-8.47,45.93,45.93,0,0,0,4.63-9.82,38.51,38.51,0,0,0,1.94-9.25,41.22,41.22,0,0,0-.58-12.14,51.27,51.27,0,0,0-1.63-6.31A40,40,0,0,0,78.65,32,42.25,42.25,0,0,0,67.37,19.15a46.35,46.35,0,0,0-9.85-5.69,45.59,45.59,0,0,0-15.15-3.13,38.44,38.44,0,0,0-8.52.81,40.68,40.68,0,0,0-16.34,7,17.38,17.38,0,0,0-1.44,1,10.44,10.44,0,0,0-1.13,1,41.46,41.46,0,0,0-4.82,4.55,30.77,30.77,0,0,0-3.88,5.08A45.59,45.59,0,0,0,1.35,39.85c-.22.61-.23,1.29-.5,1.89C.68,42.11.63,42.62,0,42.55Z"/><path class="cls-2" d="M0,42.55c.56-.3.57-.9.7-1.41A44.41,44.41,0,0,1,7.1,27.79c.68-1,1.48-1.95,2.23-2.92a.89.89,0,0,1,.72-.42.68.68,0,0,1-.26.85c1.63-1.54,3.21-3.14,4.88-4.63.22-.2.76-.39.18-.8.27-.41.54-.82,1.09-.87a7.64,7.64,0,0,0,1.55-.52c.46-.15,1-.41,1.34.2-.11.42-.48.61-.8.84A40.36,40.36,0,0,0,5,34.79a42.19,42.19,0,0,0-4,15c0,.25,0,.51,0,.76,0,1.21.1,1.3,1.31,1.3H17.45a7.09,7.09,0,0,1,1.3.07c.32,0,.65.32,1,0a2.25,2.25,0,0,0,.2-.62,7.17,7.17,0,0,0,.17-1.13c0-.1,0-.19.06-.29a2.93,2.93,0,0,0,.08-1.06,18.37,18.37,0,0,1,3.32-8.18,1.3,1.3,0,0,1,.58-.48c.62-.07.49.43.56.75.51-.19.51-1.24,1.4-.83.1.58-.31.95-.59,1.36C21,48,20.59,55,24.11,61.93A18.73,18.73,0,0,0,37.56,72.21a19.58,19.58,0,0,0,17.09-4.36,18.61,18.61,0,0,0,6.1-9.46c.14-.48.07-1.14.8-1.26.28,1.13.76,2.22-.3,3.28-.57.56-.15,1.46-.36,2.18a1.08,1.08,0,0,1-.15.28c-.31.3-.88,0-1.1.46a.57.57,0,0,1,.85-.08c.16.84-.41,1.34-.89,1.87-.3.25-.77.36-.78.88a1,1,0,0,1-.31.47c-.17.35-1,0-.79.79-.16,1-1.1,1.39-1.74,2A2.66,2.66,0,0,0,55,70a19.46,19.46,0,0,1-10.45,4.45,6.91,6.91,0,0,0-1.64.05l-.21.19c-.21.32-.06.8-.42,1.07-.79.31-1-.46-1.5-.77a5.06,5.06,0,0,0-2.42-.49A22,22,0,0,1,20.09,56.86a7.38,7.38,0,0,1-.1-1.41,2.2,2.2,0,0,0-.16-1.24,1.14,1.14,0,0,0-.37-.32,2.79,2.79,0,0,0-1.18-.12H2.57A2.18,2.18,0,0,0,1.31,54C.77,54.51,1,55.2,1,55.82a40,40,0,0,0,9.51,23.42A40.87,40.87,0,0,0,36.75,93.45c.61.08,1.23,0,1.84.12a3,3,0,0,0,2.09,0,1.8,1.8,0,0,1,.39-.27,1.92,1.92,0,0,1,1.36.41c.84.52,1.63-.06,2.44-.11a8,8,0,0,1,1.55-.08,3.44,3.44,0,0,0,2-.31,53,53,0,0,0,7-1.83,1.64,1.64,0,0,0,1-.34c2.2-.89,4.28-2,6.39-3.1a.93.93,0,0,0,.72-.38A56.87,56.87,0,0,1,68.14,84a1.15,1.15,0,0,0,.68-.44,2.47,2.47,0,0,1,1.2-1c.34.07.49,0,.37-.4a.61.61,0,0,1,.54-.47c.21-.08.58.4.64-.14s.59-.62.55-1.1a.61.61,0,0,1,.21-.37c.38-.23.63-.6,1-.82a1.69,1.69,0,0,0,1.47-.89,22.77,22.77,0,0,1,1.82-2.13c.2-.23.44-.49.83-.35a18.56,18.56,0,0,1-2.9,4,43.45,43.45,0,0,1-14.3,11.29,43.62,43.62,0,0,1-13.77,3.94,46.59,46.59,0,0,1-5.51.3A40.24,40.24,0,0,1,30.5,94a43.46,43.46,0,0,1-16.08-8.51,46.08,46.08,0,0,1-8.78-9.84A37.33,37.33,0,0,1,1.1,65.94,12.25,12.25,0,0,0,0,62.61Z"/><path class="cls-3" d="M18.8,18.57A3.28,3.28,0,0,0,17,19c-.29.12-.7.68-1,0,0-.77.79-.63,1.18-.92a35.38,35.38,0,0,1,7.47-4.28,30.65,30.65,0,0,1,5.86-2.22,64.8,64.8,0,0,1,10.07-1.45,41,41,0,0,1,7.13.39,31.8,31.8,0,0,1,7.51,1.77c2.31.92,4.61,1.81,6.83,2.93a24.66,24.66,0,0,1,3.14,2A43.45,43.45,0,0,1,74,25.08c1.2,1.47,2.4,3,3.51,4.48a20,20,0,0,1,2,3.3,48.6,48.6,0,0,1,2.77,6.63c.42,1.36.72,2.75,1.07,4.13a41.88,41.88,0,0,1,.85,12A39.25,39.25,0,0,1,82.3,65.68a50.69,50.69,0,0,1-4.2,9.39c-.17.31-.26.69-.64.85a12.5,12.5,0,0,0-2.67,3.13c-.38.7-.9.54-1.46.36a.41.41,0,0,1-.13-.29,6.35,6.35,0,0,1,1.37-2.06,40.81,40.81,0,0,0,6-11.65A6.92,6.92,0,0,1,81,64.3a1.6,1.6,0,0,0,.3-1.22c.22-1.79.78-3.52,1-5.31a9.24,9.24,0,0,0,.31-3.91c0-.77,0-1.54,0-2.3a8.69,8.69,0,0,0-.29-3.69,3.94,3.94,0,0,1-.12-1.08,2,2,0,0,0-.21-1.3c-.35-1.49-.86-3-1.09-4.47a1.6,1.6,0,0,0-.26-1,1.69,1.69,0,0,1-.12-.44,1.5,1.5,0,0,0-.41-.91,51,51,0,0,0-4-7.76A44.27,44.27,0,0,0,66.84,20.7,46.12,46.12,0,0,0,55,14.13a1.51,1.51,0,0,0-1-.3,35.46,35.46,0,0,1-4.05-1.06,1.71,1.71,0,0,0-1.09-.22,3.48,3.48,0,0,1-.84-.12,3.4,3.4,0,0,0-2-.3,12,12,0,0,1-1.89-.07c-.42-.05-.86-.39-1.27,0,0,.11-.1.2-.14.31-.1,5.86,0,11.71,0,17.57,0,.84.44,1.17,1.24,1.12a18.64,18.64,0,0,1,5.74,1.4,2.48,2.48,0,0,0,1,.44A21.44,21.44,0,0,1,62.23,45.32a2.09,2.09,0,0,0,.36,1c.14.72.47,1.39.56,2.11a3.12,3.12,0,0,0,.21,1.39,14.14,14.14,0,0,1,0,5.9,3,3,0,0,0-.21,1.39,23.36,23.36,0,0,1-1.49,4.7c-.2.43-.31,1-1,1,0-.61,0-1.23,0-1.85,0-.21,0-.57.08-.62,1.57-.77.42-2.18.78-3.22-.47-1.09-.09-2.21,0-3.3a19.46,19.46,0,0,0-3.27-12.07,18.85,18.85,0,0,0-14.11-8.64A19.18,19.18,0,0,0,27.84,38.6c-.54.53-.91,1.36-1.86,1.33-.68.3-.76,1.23-1.54,1.47-.12-.43.2-.89-.18-1.25-.21-.36,0-.63.21-.88a20.09,20.09,0,0,1,8.25-6.4c1-.41,1.15-.62.83-1.64C31.83,26,30.1,20.66,28.42,15.36c-.26-.83-.66-.89-1.37-.59a46.39,46.39,0,0,0-7,3.35C19.7,18.36,19.34,18.74,18.8,18.57Z"/><path class="cls-4" d="M107.18,64.92V61.17c0-.34-.12-.78.48-.74s.34.48.34.74c0,1.6,0,3.2,0,4.79,0,.27.22.7-.26.82s-.65-.11-.87-.46a40.33,40.33,0,0,0-2.86-4c0,1.24,0,2.48,0,3.72,0,.32.18.79-.44.79s-.39-.51-.4-.8c0-1.6,0-3.2,0-4.79,0-.25-.2-.62.21-.74a.72.72,0,0,1,.9.38c.88,1.4,1.79,2.76,2.7,4.14Z"/><path class="cls-4" d="M143.75,18.21a1.62,1.62,0,0,1,.94,2,1.58,1.58,0,0,1-1.53,1.28l-.1,0c-2.48.45-2.61.35-2.6-2.11,0-1.16,0-2.32,0-3.47,0-.57.15-.8.73-.74s1.08.06,1.62.08a1.61,1.61,0,0,1,1.7,1.06A1.52,1.52,0,0,1,143.75,18.21Z"/><path class="cls-5" d="M111.79,42.5a5.44,5.44,0,0,0,.22-.81c0-.36.24-.54.58-.44s.18.44.14.64c-.14.74-.78,1.51.31,2a1.75,1.75,0,0,1-.17.24c-.91-.47-1.78,0-2.68.08a1.72,1.72,0,0,1-1.89-1,1.53,1.53,0,0,1,.47-2c.52-.37.43-.67.11-1.12a1.47,1.47,0,0,1,.08-1.82,1.55,1.55,0,0,1,1.68-.47,1.34,1.34,0,0,1,.77,2.15c-.27.37-1,.56-.88,1S111.26,41.86,111.79,42.5Z"/><path class="cls-6" d="M136.5,66.36c.09.61,1.13.58.68,1.19s-.83-.2-1.17-.41a1.93,1.93,0,0,0-1.09-.3A2.3,2.3,0,0,1,132.53,65a4.81,4.81,0,0,1,.1-3.09A2.26,2.26,0,0,1,135,60.39,2.17,2.17,0,0,1,137.19,62,4.21,4.21,0,0,1,136.5,66.36Z"/><path class="cls-5" d="M120.83,63.54V61c0-.28-.08-.57.39-.62,3.53-.39,4.64,1.62,4,4.28a3.32,3.32,0,0,1-4.19,2.09c-.35-.15-.24-.41-.24-.64C120.82,65.28,120.83,64.41,120.83,63.54Z"/><path class="cls-7" d="M139.37,41v-.22c0-3.3.09-3.38,3.48-3,.27,0,.51,0,.49.4s-.28.35-.54.35a8.29,8.29,0,0,1-1.41,0c-.95-.14-1.25.2-1.2,1.17,0,.72.26.86.94.9s1.65-.5,1.7.36c0,.6-1.1.32-1.65.27-1-.1-1,.46-1,1.16s.08,1.24,1,1.09a8.57,8.57,0,0,1,1.52,0c.28,0,.63-.08.61.39s-.39.35-.65.35c-.91,0-1.82,0-2.72,0-.47,0-.64-.16-.63-.63C139.39,42.7,139.37,41.83,139.37,41Z"/><path class="cls-5" d="M108,86.21c0,2.24-1,3.4-2.8,3.25l-.22,0c-1.54-.25-2.4-2.08-2-4.24a2.5,2.5,0,0,1,3.1-2.12C107.36,83.36,108,84.41,108,86.21Z"/><path class="cls-8" d="M102.78,42.39c.37,0,.74-.27.93.35a1.32,1.32,0,0,0,1.42.81c.59,0,1.19-.08,1.34-.82s-.32-1-.86-1.18a8.55,8.55,0,0,1-1.89-.81,1.53,1.53,0,0,1,.11-2.68,2.44,2.44,0,0,1,3.38.89c.09.24.33.58-.11.71-.26.08-.56.08-.65-.34a1.18,1.18,0,0,0-1.22-.89c-.62,0-1.21.1-1.36.8s.31,1,.87,1.18a14.12,14.12,0,0,1,1.8.73,1.46,1.46,0,0,1,.81,1.53,1.54,1.54,0,0,1-1,1.33A2.5,2.5,0,0,1,102.78,42.39Z"/><path class="cls-8" d="M114.41,66.65c-.77.39-1-.09-1.09-.61-.22-1.28-1.2-.82-1.95-.92s-1.25.13-1.39.95c-.09.59-.41.9-1.08.63L111,61c.12-.3.2-.62.65-.59s.4.21.5.47C112.92,62.81,113.67,64.73,114.41,66.65Z"/><path class="cls-9" d="M114.07,40.9c0-.83,0-1.67,0-2.5,0-.45.12-.66.61-.63a12.53,12.53,0,0,1,2.37.15,1.88,1.88,0,0,1-.1,3.72c-.64.08-1.48-.15-1.88.18s-.09,1.22-.14,1.86c0,.29-.11.49-.43.51s-.42-.29-.42-.58V40.9Z"/><path class="cls-7" d="M159,17.12c0-.59,0-1.17,0-1.75,0-.24-.07-.52.35-.52s.43.16.43.46c0,1.93,0,3.85,0,5.78,0,.21-.11.59-.28.46-.72-.55-1.34.15-2,.08a1.6,1.6,0,0,1-1.23-.8,3.08,3.08,0,0,1-.15-3C156.69,16.68,157.43,16.51,159,17.12Z"/><path class="cls-5" d="M117.34,66.87a2.37,2.37,0,0,1-2.12-1.09c-.12-.21-.44-.53-.08-.74a.48.48,0,0,1,.77.28c.32.84,1.06.88,1.82.81a1,1,0,0,0,.34-1.86c-.57-.23-1.17-.38-1.72-.65a1.63,1.63,0,0,1-1.12-1.89,2.05,2.05,0,0,1,2.33-1.33,2,2,0,0,1,2,1.43c0,.17,0,.4-.18.43s-.55.1-.68-.32c-.3-.94-1.07-1-1.86-.82a.87.87,0,0,0-.75.82.81.81,0,0,0,.5.88c.46.2.94.36,1.41.54,1.26.48,1.77,1.16,1.58,2.13S118.52,66.87,117.34,66.87Z"/><path class="cls-8" d="M126.14,66.69l2.16-5.75c.1-.27.2-.53.6-.52s.46.28.56.54q1,2.58,2,5.17c.08.2.35.5,0,.63a.53.53,0,0,1-.76-.39c-.14-.43-.13-1.09-.62-1.19a8.28,8.28,0,0,0-2.17,0c-.55,0-.5.58-.62.91C127.05,66.6,126.85,67,126.14,66.69Z"/><path class="cls-5" d="M130.92,41a7.62,7.62,0,0,1-.19,2A1.76,1.76,0,0,1,129,44.26a1.64,1.64,0,0,1-1.8-1.25,7.74,7.74,0,0,1,0-4,1.63,1.63,0,0,1,1.76-1.3,1.75,1.75,0,0,1,1.86,1.33A7.36,7.36,0,0,1,130.92,41Z"/><path class="cls-4" d="M158.56,63.53c0-.83,0-1.67,0-2.5,0-.48.15-.63.62-.61.94,0,1.88,0,2.83,0,.24,0,.53-.07.54.33s-.26.36-.52.36a12.67,12.67,0,0,1-1.63,0c-.87-.12-1,.27-1,1s.17,1.14,1,1a8,8,0,0,1,1.3,0c.25,0,.41.1.41.38s-.16.36-.41.36h-.87c-1.43,0-1.74.43-1.43,1.86.08.37.28.35.54.35H162c.23,0,.54-.1.56.31s-.25.37-.51.37c-1,0-2,0-2.94,0-.53,0-.57-.25-.56-.66,0-.87,0-1.74,0-2.61Z"/><path class="cls-4" d="M151.11,63.53a12.62,12.62,0,0,1,.1-1.51A1.71,1.71,0,0,1,153,60.4,1.73,1.73,0,0,1,155,62a8.85,8.85,0,0,1-.07,3.55,1.9,1.9,0,0,1-3.62,0A9.37,9.37,0,0,1,151.11,63.53Z"/><path class="cls-5" d="M146.07,63.44a12.25,12.25,0,0,1,.2-1.67,1.66,1.66,0,0,1,1.8-1.39A1.74,1.74,0,0,1,150,61.81a8.68,8.68,0,0,1,0,3.66,1.71,1.71,0,0,1-1.91,1.4,1.74,1.74,0,0,1-1.81-1.55A15.86,15.86,0,0,1,146.07,63.44Z"/><path class="cls-5" d="M135.94,41a6.78,6.78,0,0,1-.21,2,1.75,1.75,0,0,1-1.81,1.27,1.67,1.67,0,0,1-1.78-1.3,8,8,0,0,1,0-3.87,1.65,1.65,0,0,1,1.82-1.35,1.76,1.76,0,0,1,1.83,1.38A7.81,7.81,0,0,1,135.94,41Z"/><path class="cls-10" d="M96.22,41.45c0-1.73,0-1.73,1.7-1.73s1.56,0,1.56,1.75,0,1.73-1.58,1.73S96.22,43.2,96.22,41.45Z"/><path class="cls-11" d="M113,85.17a2.21,2.21,0,0,1,1.71-.53,1.15,1.15,0,0,1,1.08.92c.11,1.15.07,2.32.09,3.48,0,.26-.15.38-.42.37s-.37-.18-.37-.42c0-.61,0-1.23,0-1.84s.32-1.81-.92-1.82-1.18.93-1.15,1.81c0,.58,0,1.16,0,1.74,0,.35-.08.54-.48.52s-.38-.25-.38-.51c0-1.92,0-3.84,0-5.77,0-.3.08-.45.43-.45s.45.11.44.44C113,83.75,113,84.39,113,85.17Z"/><path class="cls-9" d="M123,40.13c2.25-.2,3.39,1.08,2.71,2.92a1.79,1.79,0,0,1-1.77,1.2,1.81,1.81,0,0,1-1.81-1c-.13-.23-.35-.55,0-.74a.44.44,0,0,1,.61.28,1.09,1.09,0,0,0,1.69.6,1.39,1.39,0,0,0,.46-1.92,1.2,1.2,0,0,0-1.74-.58c-.76.32-1,.24-1-.68.16-2.58.25-2.68,2.92-2.45.29,0,.59,0,.59.42s-.32.38-.6.39h-.54C123.07,38.59,123.07,38.59,123,40.13Z"/><path class="cls-12" d="M97.76,88.34c-1.77,0-1.52.23-1.53-1.45s0-1.8,1.28-1.8c2,0,2,0,2,1.77C99.48,88.34,99.48,88.34,97.76,88.34Z"/><path class="cls-13" d="M97.89,20.52c-1.87,0-1.65.29-1.66-1.43s0-1.84,1.71-1.83c1.54,0,1.44,0,1.58,2.1C99.62,20.89,98.66,20.47,97.89,20.52Z"/><path class="cls-14" d="M99.48,64c0,1.86.22,1.64-1.34,1.64-2.06,0-1.9.32-1.91-1.29,0-2,0-2,1.46-2C99.48,62.4,99.48,62.4,99.48,64Z"/><path class="cls-15" d="M149.83,40.92v-.11c0-1-.33-2.31.17-2.82.64-.66,2-.16,3-.2.27,0,.73-.2.74.33s-.49.37-.8.4a5.35,5.35,0,0,1-1.2,0c-.82-.11-1,.19-1.1,1,0,1.06.38,1.17,1.24,1.13.48,0,1.39-.29,1.38.28,0,.82-.93.36-1.4.35-.9,0-1.37.17-1.18,1.18a5.24,5.24,0,0,1,0,1c0,.32.08.69-.42.72s-.44-.36-.44-.67C149.83,42.66,149.84,41.79,149.83,40.92Z"/><path class="cls-8" d="M116.05,18.07a2,2,0,0,1,2.54-1.24c.93.27,1.13,1,1.13,1.87s0,1.59.07,2.38c0,.37-.22.7-.44.47-.55-.57-.94-.08-1.4,0a1.52,1.52,0,0,1-1.89-1,1.44,1.44,0,0,1,1.25-1.8c.28-.05.58,0,.85-.11s.74.2.73-.36a.81.81,0,0,0-.69-.85c-.43-.06-.93-.12-1.17.34S116.46,18.11,116.05,18.07Z"/><path class="cls-4" d="M113.67,19.43a.91.91,0,0,0-.33,0c-.37.16-1-.4-1.15.32s.76,1.27,1.44,1.18a1.94,1.94,0,0,0,.81-.3c.24-.17.48-.3.65-.05s-.15.5-.35.66a2,2,0,0,1-1.66.33,2.29,2.29,0,0,1-1.75-2.71,2.1,2.1,0,0,1,2.41-2.07,2.18,2.18,0,0,1,1.62,2.36c-.08.31-.3.26-.49.27C114.47,19.44,114.07,19.43,113.67,19.43Z"/><path class="cls-5" d="M117.86,87.26c.23,1.49,1,1.88,2.27,1.21.26-.13.47-.25.65,0s-.13.44-.3.59a2.25,2.25,0,0,1-2.63,0,2.66,2.66,0,0,1,.33-4.19,1.85,1.85,0,0,1,2,.08c.75.47.77,1.27.87,2,0,.43-.32.31-.54.31C119.6,87.27,118.74,87.26,117.86,87.26Z"/><path class="cls-9" d="M151,19.08c0-.43,0-.87,0-1.3,0-.6-.19-1.55.93-.66.07.06.34-.14.53-.21,1.32-.51,2.21.07,2.27,1.49,0,.83,0,1.66,0,2.5,0,.28.14.71-.41.68s-.38-.45-.39-.74c0-.79,0-1.59,0-2.39,0-.56-.21-1-.88-1a1,1,0,0,0-1.16,1c-.06.79,0,1.59,0,2.39,0,.28.15.69-.39.71s-.44-.44-.46-.75c0-.58,0-1.16,0-1.74Z"/><path class="cls-8" d="M169,63.52c0-.83,0-1.67,0-2.5,0-.38,0-.61.52-.6,1,0,2,0,2.94,0,.21,0,.45,0,.48.29s-.23.4-.49.4c-.66,0-1.31,0-2,0-1.1,0-.52.82-.61,1.27s-.21,1,.61.92a14.77,14.77,0,0,1,1.63,0c.26,0,.41.1.39.39s-.2.24-.37.26c-.74.09-1.73-.33-2.16.23s-.11,1.39-.11,2.11c0,.3-.08.48-.42.5s-.45-.23-.45-.54C169,65.34,169,64.43,169,63.52Z"/><path class="cls-16" d="M146.12,41.41V40.22c0-1.51,0-1.51-1.51-1.68-.25,0-.54,0-.57-.35s.31-.42.6-.42h3.8c.24,0,.53-.05.56.33s-.27.43-.57.43a4.7,4.7,0,0,1-.65,0c-.69-.1-.87.19-.84.85.05,1.34,0,2.68,0,4,0,.33.14.8-.44.79s-.36-.52-.38-.82c0-.65,0-1.31,0-2Z"/><path class="cls-4" d="M149.87,19.28a2.18,2.18,0,0,1-2.26,2.34,2.26,2.26,0,0,1-2.06-2.56,2.15,2.15,0,0,1,2.21-2.29A2.24,2.24,0,0,1,149.87,19.28Z"/><path class="cls-11" d="M129.38,19.28a3.89,3.89,0,0,1,0,1.08c-.13.43.56,1.81-.91.9,0,0-.12.06-.18.08-2,.53-2.61.07-2.61-2.05,0-.61,0-1.23,0-1.84,0-.3-.11-.68.45-.64s.39.33.39.61c0,.79,0,1.59,0,2.39s.19,1.18,1,1.13a1,1,0,0,0,1.13-1.17c0-.72,0-1.45,0-2.17,0-.31-.2-.8.43-.78s.32.46.33.73C129.41,18.12,129.38,18.7,129.38,19.28Z"/><path class="cls-17" d="M104.67,18.68V17.59c0-1.5,0-1.51-1.5-1.67-.26,0-.54,0-.56-.35s.23-.41.5-.41H107c.25,0,.51,0,.52.37s-.24.35-.5.38c-1.55.18-1.55.18-1.55,1.73,0,1,0,2,0,3,0,.34.24.9-.44.89s-.34-.54-.36-.83c0-.69,0-1.38,0-2.07Z"/><path class="cls-4" d="M137.25,17c-.62,1.77-1.23,3.55-1.86,5.31-.25.69-.66,1.22-1.5,1.16-.2,0-.37,0-.36-.29s0-.34.24-.4c1.35-.3,1.2-1.18.84-2.16-.46-1.22-.88-2.44-1.41-3.91,1.9.61,1.19,2.52,2.17,3.35.75-.9.21-2.62,1.58-3.26Z"/><path class="cls-4" d="M123.09,21.61a1.94,1.94,0,0,1-1.89-.76c-.13-.19-.42-.5-.09-.71a.47.47,0,0,1,.71.23,1.15,1.15,0,0,0,1.4.56.69.69,0,0,0,.63-.64.64.64,0,0,0-.51-.63,15.11,15.11,0,0,1-1.44-.47,1.16,1.16,0,0,1-.79-1.07A1.21,1.21,0,0,1,122,17a2,2,0,0,1,2.3.35c.23.22.53.54.22.83s-.59.08-.77-.27a1,1,0,0,0-1-.42A.69.69,0,0,0,122,18c-.08.43.23.56.54.68s.49.12.73.2c.76.26,1.6.49,1.39,1.58A1.4,1.4,0,0,1,123.09,21.61Z"/><path class="cls-8" d="M160.89,20.16c.36-.11.67-.18.89.28A1.09,1.09,0,0,0,163,21a.73.73,0,0,0,.76-.64c0-.37-.25-.57-.58-.68a12.3,12.3,0,0,1-1.34-.43A1.15,1.15,0,0,1,161,18a1.36,1.36,0,0,1,.91-1.13,2.14,2.14,0,0,1,2.37.55c.15.22.31.48.1.68a.45.45,0,0,1-.73-.16,1,1,0,0,0-1.09-.52.69.69,0,0,0-.72.54c-.09.43.22.57.54.69.47.17,1,.29,1.43.47a1.08,1.08,0,0,1,.74,1.09,1.3,1.3,0,0,1-.71,1.14A2,2,0,0,1,160.89,20.16Z"/><path class="cls-8" d="M126.56,89.48a1.87,1.87,0,0,1-1.56-.63c-.21-.24-.47-.58-.17-.83s.58,0,.76.3c.27.49.74.51,1.23.47a.7.7,0,0,0,.73-.53c.09-.39-.18-.61-.5-.73s-.62-.19-.93-.28c-.7-.21-1.38-.53-1.28-1.37s.8-1.22,1.65-1.25a1.72,1.72,0,0,1,1.23.33c.3.25.78.58.5,1s-.66,0-.92-.31a1,1,0,0,0-1.1-.28.64.64,0,0,0-.54.6.54.54,0,0,0,.41.57c.3.11.61.21.92.3.76.22,1.51.47,1.34,1.49S127.4,89.45,126.56,89.48Z"/><path class="cls-7" d="M165.33,63.92v-1.2c0-1.46,0-1.46-1.5-1.6-.23,0-.56.09-.58-.3s.33-.39.6-.39h3.81c.23,0,.53-.09.53.33s-.27.34-.52.37c-1.54.16-1.53.17-1.53,1.68,0,1.12,0,2.25,0,3.37,0,.28.06.6-.4.61s-.4-.3-.4-.58C165.32,65.44,165.33,64.68,165.33,63.92Z"/><path class="cls-3" d="M14.85,19.87c.2,0,.45-.2.6,0a.46.46,0,0,1-.1.6c-2.09,1.6-3.73,3.68-5.83,5.28,0,0-.13,0-.3,0l.83-1.36A20.27,20.27,0,0,1,14.85,19.87Z"/><path class="cls-9" d="M143.55,60.36c0,2.06,0,4,0,6,0,.25,0,.5-.36.49s-.49-.18-.49-.54c0-1.3,0-2.6,0-3.91,0-.75-.13-1-.88-.62-.17.08-.52.49-.7,0s.15-.56.5-.68C142.25,60.87,142.84,60.63,143.55,60.36Z"/><path class="cls-18" d="M109.37,86.77c-.19-.42.6-1.45-.73-1.55,0,0-.1-.14-.08-.16.42-.51.83-1,1.27-1.5,0,0,.35.09.35.13,0,.59.07,1,.8,1.1.16,0,.22.51-.18.49-.74,0-.58.46-.58.86,0,.58,0,1.17,0,1.74,0,.4,0,.85.56.89.29,0,.36.2.32.44s-.31.24-.51.26a1,1,0,0,1-1.12-.91C109.42,88,109.41,87.48,109.37,86.77Z"/><path class="cls-19" d="M121.74,87c0-.44,0-.87,0-1.3s-.29-1.6.94-.75c.18.12.48-.38.83-.35s.54-.09.56.31c0,.25-.07.44-.34.45-1.16,0-1.18.8-1.14,1.66,0,.61,0,1.23,0,1.84,0,.27,0,.49-.38.51s-.48-.19-.48-.53C121.75,88.27,121.74,87.65,121.74,87Z"/><path class="cls-7" d="M108.44,19.09c0-.33,0-.66,0-1s-.11-.89.08-1.17.62.07.92.13,1-.66,1.27-.06c.29.78-.7.41-1,.7a1.12,1.12,0,0,0-.36,1c0,.8,0,1.59,0,2.39,0,.26,0,.51-.37.52s-.49-.19-.48-.53c0-.66,0-1.31,0-2Z"/><path class="cls-11" d="M130.69,19.12a3.09,3.09,0,0,1,0-.43c.1-.61-.34-1.42.22-1.8.37-.25,1.07.25,1.64-.09a.32.32,0,0,1,.47.28c0,.26-.08.41-.35.42-1,.06-1.2.72-1.13,1.58.05.62,0,1.23,0,1.85,0,.32.06.67-.47.65s-.38-.33-.39-.61V19.12Z"/><path class="cls-16" d="M139.31,64.4h-.88a.28.28,0,0,1-.32-.33.32.32,0,0,1,.34-.33,3.13,3.13,0,0,1,.75,0c.36.09,1.05-.32,1,.35S139.51,64.16,139.31,64.4Z"/><path class="cls-20" d="M49.75,32.77c-1.5-.47-3-.89-4.55-1.23a4.64,4.64,0,0,0-1-.14c-1.71-.21-1.71-.21-1.71-2V13a2.77,2.77,0,0,1,.09-1.18h0a2.43,2.43,0,0,1,1.31,0l2.11.08a11.65,11.65,0,0,1,2,.35l.86.07c.31.27.81-.13,1.09.29l4.18,1c.25.21.66,0,.86.37a41.55,41.55,0,0,1,14.32,8.53A41,41,0,0,1,80.05,38.06a6,6,0,0,0,.28.57,3.08,3.08,0,0,1,.37.94l.08.37a3.13,3.13,0,0,1,.35.94l1,4.52c.47.35,0,.93.31,1.32l.06,1.07c.49,1.22.14,2.52.37,3.76v2.27c-.22,1.32.12,2.69-.35,4-.32,1.8-.63,3.61-1,5.41a3.13,3.13,0,0,1-.37,1.13,47.63,47.63,0,0,1-4.65,10.29c-1,1.6-2.16,3-3.25,4.55a4.49,4.49,0,0,1-.93,1.06c-.12,0-.22.09-.15.25a2.57,2.57,0,0,1-1.29,1.31c0,.27-.46.12-.44.44s-.26.31-.43.43A5,5,0,0,0,69,83.76c-.16.23-.46.26-.64.45l-4.6,3.49a1.54,1.54,0,0,1-.74.4c-1.62.77-3.11,1.79-4.81,2.42-.56.21-1.1.48-1.65.72-.28.15-.59.24-.88.37-1.19.24-2.3.74-3.49,1a36.45,36.45,0,0,1-3.7.81,7.86,7.86,0,0,1-2,.35l-1.68.07c-2.21.12-2.51.85-2.5-2.18,0-4.79,0-9.59,0-14.38a13.92,13.92,0,0,1,.35-2.88l0,0c.63-.37,1.36,0,2-.23a19.28,19.28,0,0,0,9.22-3.52c.41-.28.8-.59,1.19-.89a10.34,10.34,0,0,0,.84-.64c.54-.71,1.51-1,1.83-1.94.05-.52.54-.61.84-.89l.27-.4c0-.47.44-.59.65-.89a7.22,7.22,0,0,0,1.12-1.73.31.31,0,0,1,.16-.44h0a9.44,9.44,0,0,0,1.69-4c.13-.54.62-1,.47-1.6.24-.43-.08-1,.22-1.37a17.07,17.07,0,0,0,0-6.09c-.27-.41,0-.91-.21-1.33,0-.75-.58-1.38-.51-2.16-.34-.2-.16-.62-.37-.87A21,21,0,0,0,55.17,36a29.09,29.09,0,0,0-4.56-2.83C50.36,33,50,33,49.75,32.77Z"/><path class="cls-1" d="M26,39.93c1.56-1.28,2.88-2.82,4.59-4a19.37,19.37,0,0,1,8.67-3.09A20.08,20.08,0,0,1,61,46.79a20.82,20.82,0,0,1,.57,9.83c0,.18,0,.36,0,.54-.71,1.5-.93,3.18-1.73,4.65a20.37,20.37,0,0,1-5.65,6.89,20.84,20.84,0,0,1-9.56,4.09,19.15,19.15,0,0,1-6.87-.22,18.51,18.51,0,0,1-6-2.19,21.92,21.92,0,0,1-7-6.68,19,19,0,0,1-3-8.39,20,20,0,0,1,4-14.79A2.85,2.85,0,0,0,26,39.93Z"/><path class="cls-21" d="M41,93.36v.37a4.65,4.65,0,0,1-2.37.11,38.54,38.54,0,0,1-15-4.06,41.35,41.35,0,0,1-10.29-7.2A40.09,40.09,0,0,1,.84,57a22.38,22.38,0,0,1-.16-3.37,1.34,1.34,0,0,1,.74-.09H19.25c.28,0,.58-.08.83.12l.05.43c.18.43-.07.91.16,1.33a17.19,17.19,0,0,0,2.34,7.67A21.27,21.27,0,0,0,35.46,73.58a17.64,17.64,0,0,0,4.55.83c.38,0,.84-.1,1,.42a3.74,3.74,0,0,1,.39,1.78q0,7.61,0,15.22A2,2,0,0,1,41,93.36Z"/><path class="cls-22" d="M18.8,18.57a44.27,44.27,0,0,1,8.79-4.32c.5-.19.7-.19.9.41q2.72,8.5,5.54,17c.36,1.07-.5,1.29-1,1.43-1.95.55-3.43,1.83-5,2.95a22.85,22.85,0,0,0-3.49,3.53,1.7,1.7,0,0,0-.25.58,17.38,17.38,0,0,0-3.75,8.69c-.23.34,0,.78-.21,1.12h0c-.25.4,0,.88-.17,1.3l-.06.8c-.33.34-.71.18-1.08.08-5.7,0-11.4-.06-17.1,0-1,0-1.28-.28-1.23-1.28A42.84,42.84,0,0,1,4.09,36.24a35.86,35.86,0,0,1,4.64-8.07A42.14,42.14,0,0,1,18.8,18.57Z"/><path class="cls-23" d="M41,93.36q0-9.27,0-18.53c.48.2.54,1,1.28.87.18.17.13.4.13.61,0,5.62,0,11.25,0,16.87a.85.85,0,0,1-.12.62Z"/><path class="cls-1" d="M42.32,93.8q0-9,0-18.1c.12-.43-.19-1,.28-1.3,0,3.16-.05,6.32-.06,9.48,0,2.88,0,5.75,0,8.62,0,1.07.21,1.58,1.36,1.35a5,5,0,0,1,.87,0c-.59.13-1.18.27-1.77.38A.48.48,0,0,1,42.32,93.8Z"/><path class="cls-1" d="M20.08,53.69l-19.4,0c.29-.32.67-.2,1-.2H19.08C19.42,53.46,19.81,53.34,20.08,53.69Z"/><path class="cls-3" d="M70.94,81.81a4.73,4.73,0,0,1,1.29-1.31c.17.11.37.44.32.44-1.1,0-.23,1.33-1,1.43C71.21,82.41,71.17,82,70.94,81.81Z"/><path class="cls-3" d="M58.49,66.32a2.47,2.47,0,0,1-.84.89c-.21,0-.49,0-.57-.2s.14-.38.36-.44Z"/><path class="cls-3" d="M60.69,62.86c-.06.14-.11.29-.16.44-.61-.23-.92.41-1.57.63C59.45,63.18,59.88,62.7,60.69,62.86Z"/><path class="cls-3" d="M70.07,82.68c0-.31.41-.16.43-.43.29.19.6.45.25.76S70.28,82.83,70.07,82.68Z"/><path class="cls-1" d="M38.64,93.84c.79-.11,1.59.21,2.37-.11A2.55,2.55,0,0,1,38.64,93.84Z"/><path class="cls-1" d="M72.38,80.25a2.65,2.65,0,0,1,.93-1.06c0,.07,0,.14,0,.22A1.1,1.1,0,0,1,72.38,80.25Z"/><path class="cls-1" d="M46.41,93.77a6.66,6.66,0,0,1,2-.35C47.83,94,47.11,93.79,46.41,93.77Z"/><path class="cls-3" d="M59.41,65c0,.45-.4.62-.65.89C58.26,65.09,59.13,65.28,59.41,65Z"/><path class="cls-1" d="M44.57,74.2a5.19,5.19,0,0,1-2,.23C43.19,73.92,43.9,74.26,44.57,74.2Z"/><path class="cls-1" d="M55.82,69.15a.92.92,0,0,1-.84.64C55.06,69.32,55.45,69.24,55.82,69.15Z"/><path class="cls-1" d="M20.29,55.45a1.92,1.92,0,0,1-.16-1.33C20.45,54.53,20.27,55,20.29,55.45Z"/><path class="cls-1" d="M20.13,51.27A1.94,1.94,0,0,1,20.3,50C20.27,50.4,20.45,50.87,20.13,51.27Z"/><path class="cls-1" d="M20.3,50a1.58,1.58,0,0,1,.21-1.12C20.49,49.22,20.67,49.64,20.3,50Z"/><path class="cls-1" d="M68.31,84.21c.18-.2.29-.5.64-.45C68.93,84.19,68.63,84.21,68.31,84.21Z"/><path class="cls-1" d="M19,52.15l1.08-.08C19.74,52.53,19.38,52.43,19,52.15Z"/><path class="cls-1" d="M63,88.1a.87.87,0,0,1,.74-.4C63.65,88.18,63.3,88.13,63,88.1Z"/><path class="cls-1" d="M55.63,91.61a1.26,1.26,0,0,1,.88-.37A.8.8,0,0,1,55.63,91.61Z"/><path class="cls-24" d="M41,21.61c0,2.91,0,5.82,0,8.73,0,.64-.15.87-.84.89a14.82,14.82,0,0,0-3.73.6c-.51.16-.79.06-1-.52Q32.76,22.88,30,14.48c-.22-.7-.2-1,.6-1.22a42.62,42.62,0,0,1,9.32-1.48c.9,0,1.08.29,1.07,1.11C41,15.8,41,18.71,41,21.61Z"/><path class="cls-1" d="M42.54,11.8q0,9.25,0,18.5c0,.7.21,1,.92,1a2.77,2.77,0,0,1,.73.14l-.87,0c-.67.07-1-.15-1-.9,0-6,0-12,0-18A.81.81,0,0,1,42.54,11.8Z"/><path class="cls-1" d="M82.53,57.81c.12-1.33.24-2.66.35-4C82.83,55.16,83.2,56.53,82.53,57.81Z"/><path class="cls-1" d="M82.89,51.55l-.37-3.76C83.2,49,82.84,50.29,82.89,51.55Z"/><path class="cls-1" d="M48,12.18a5.63,5.63,0,0,1-2-.35C46.67,11.81,47.4,11.64,48,12.18Z"/><path class="cls-1" d="M63.08,55.84a2.25,2.25,0,0,1-.22,1.37C62.89,56.75,62.67,56.25,63.08,55.84Z"/><path class="cls-1" d="M82.46,46.72c-.3-.39-.18-.88-.31-1.32C82.72,45.73,82.39,46.28,82.46,46.72Z"/><path class="cls-1" d="M49.75,32.77a1.23,1.23,0,0,1,.86.41C50.28,33.14,49.85,33.3,49.75,32.77Z"/><path class="cls-1" d="M43.86,11.75l-1.31,0A1.1,1.1,0,0,1,43.86,11.75Z"/><path class="cls-1" d="M62.85,48.42a2,2,0,0,1,.21,1.33C62.68,49.36,62.89,48.87,62.85,48.42Z"/><path class="cls-1" d="M81.21,64.35a2.2,2.2,0,0,1,.37-1.13C81.61,63.65,81.68,64.09,81.21,64.35Z"/><path class="cls-1" d="M62,45.39a1.66,1.66,0,0,1,.37.87C61.83,46.14,62,45.72,62,45.39Z"/><path class="cls-1" d="M81.13,40.88a1.53,1.53,0,0,1-.35-.94A.79.79,0,0,1,81.13,40.88Z"/><path class="cls-1" d="M80.7,39.57a1.48,1.48,0,0,1-.37-.94A.79.79,0,0,1,80.7,39.57Z"/><path class="cls-1" d="M55,13.91l-.86-.37C54.45,13.58,54.87,13.41,55,13.91Z"/><path class="cls-1" d="M50,12.54c-.36-.12-.78,0-1.09-.29C49.23,12.29,49.69,12.05,50,12.54Z"/><path class="cls-25" d="M142.17,18.57c1-.05,1.73.12,1.74,1.14s-.89,1.07-1.71,1.16c-1.23.12-.83-.75-.9-1.34C141.22,18.79,141.38,18.27,142.17,18.57Z"/><path class="cls-26" d="M141.3,16.68c-.19-.69.24-.83.95-.78s1.51,0,1.48,1-.88,1-1.66,1.06C141.05,18,141.35,17.33,141.3,16.68Z"/><path class="cls-27" d="M110.14,43.61c-.75-.09-1.24-.43-1.23-1.17a1.13,1.13,0,0,1,.8-1A6,6,0,0,1,111.19,43C111,43.58,110.49,43.48,110.14,43.61Z"/><path class="cls-28" d="M110.15,38.4c.48,0,.79.25.78.72a1,1,0,0,1-.85,1c-.51.09-.55-.45-.6-.81A.73.73,0,0,1,110.15,38.4Z"/><path class="cls-29" d="M136.58,63.66c0,1.64-.54,2.44-1.64,2.47a1.47,1.47,0,0,1-1.09-.4,3.64,3.64,0,0,1,0-4.2,1.52,1.52,0,0,1,2.41.35A3.07,3.07,0,0,1,136.58,63.66Z"/><path class="cls-26" d="M121.69,63.56c0-.36,0-.73,0-1.08s-.26-1.11.2-1.3a2.07,2.07,0,0,1,1.86.31,3.06,3.06,0,0,1,.71,3.19,2,2,0,0,1-2.07,1.43c-.56,0-.77-.13-.72-.71s0-1.23,0-1.84Z"/><path class="cls-29" d="M107.18,86.15c0,1.69-.59,2.6-1.63,2.63s-1.77-.91-1.79-2.51a4.35,4.35,0,0,1,.1-1.08,1.62,1.62,0,0,1,1.62-1.45,1.58,1.58,0,0,1,1.62,1.44A6.09,6.09,0,0,1,107.18,86.15Z"/><path class="cls-28" d="M112.64,64.34l-.68,0c-.43,0-.85,0-1.36,0l1-2.79A11,11,0,0,1,112.64,64.34Z"/><path class="cls-25" d="M115.81,38.51c1.43,0,2,.45,2,1.31s-.59,1.12-2,1.18c-1.52.08-.76-1-.9-1.63C114.71,38.38,115.42,38.47,115.81,38.51Z"/><path class="cls-30" d="M159,19.24c.07.78,0,1.59-1.05,1.7-.78.08-1.33-.69-1.33-1.75s.48-1.76,1.32-1.72C159.14,17.52,159.05,18.38,159,19.24Z"/><path class="cls-28" d="M129.87,64.35h-2l.94-2.75A10.29,10.29,0,0,1,129.87,64.35Z"/><path class="cls-25" d="M130.11,41.07a14.67,14.67,0,0,1-.12,1.52,1.07,1.07,0,0,1-1,1,1.08,1.08,0,0,1-1.14-1,8.24,8.24,0,0,1,0-3.13c.12-.63.41-1.1,1.13-1.07s1,.51,1.07,1.14C130.08,40,130.08,40.5,130.11,41.07Z"/><path class="cls-26" d="M154.32,63.68a10.85,10.85,0,0,1-.13,1.58,1.07,1.07,0,0,1-2.11,0,7.79,7.79,0,0,1,0-3.33,1.08,1.08,0,0,1,2.15,0A12.66,12.66,0,0,1,154.32,63.68Z"/><path class="cls-30" d="M149.31,63.64a14,14,0,0,1-.15,1.68,1,1,0,0,1-1,.86,1,1,0,0,1-1.12-.83,7.73,7.73,0,0,1,0-3.45,1.08,1.08,0,0,1,2.12.07A14.51,14.51,0,0,1,149.31,63.64Z"/><path class="cls-30" d="M135.13,41a12.46,12.46,0,0,1-.12,1.61,1.07,1.07,0,0,1-2.13.07,7.53,7.53,0,0,1,0-3.34,1,1,0,0,1,1.07-.89,1.05,1.05,0,0,1,1.05.92A12.36,12.36,0,0,1,135.13,41Z"/><path class="cls-31" d="M118,19.27c.56-.05.9-.07.88.5,0,.77-.51,1.07-1.17,1.15s-1-.22-.92-.8C116.89,19.27,117.64,19.36,118,19.27Z"/><path class="cls-32" d="M113.31,18.81c-.32-.27-1,.31-1-.37a1,1,0,0,1,1.16-1,.93.93,0,0,1,1,1C114.36,19.14,113.67,18.54,113.31,18.81Z"/><path class="cls-33" d="M117.88,86.56c.13-.75.43-1.29,1.23-1.26s1,.57,1,1.26Z"/><path class="cls-30" d="M149,19.17c0,1.06-.53,1.79-1.32,1.79s-1.31-.7-1.32-1.69.46-1.79,1.27-1.82S149,18.1,149,19.17Z"/></svg>