<?xml version="1.0" encoding="utf-8"?>
<!-- Generator: Adobe Illustrator 24.1.1, SVG Export Plug-In . SVG Version: 6.00 Build 0)  -->
<svg version="1.1" id="Capa_1" xmlns="http://www.w3.org/2000/svg" xmlns:xlink="http://www.w3.org/1999/xlink" x="0px" y="0px"
	 viewBox="0 0 48 48" style="enable-background:new 0 0 48 48;" xml:space="preserve">
<style type="text/css">
	.st0{fill:#F4F4F4;}
</style>
<path class="st0" d="M45.4,8.8c-0.8,0.3-1.2,1.1-0.9,1.9c0.1,0.3,0.3,0.5,0.5,0.7c-1.1,3-3.7,8.6-6,8.3c-2.4-0.4-3.6-6.2-4-9
	c0.1,0,0.1,0,0.2,0c0.8-0.3,1.2-1.1,0.9-1.9c-0.3-0.8-1.1-1.2-1.9-0.9C33.4,8.2,33,9,33.2,9.8c0.2,0.6,0.7,0.9,1.3,1
	c-0.5,3-2,9.2-4.9,9.9c-2.4,0.5-5.9-4.2-8.2-7.7c1.6-0.8,2.3-2.7,1.7-4.4c-0.7-1.9-2.8-2.9-4.6-2.2c-1.9,0.7-2.9,2.8-2.2,4.6
	c0.6,1.7,2.4,2.6,4.1,2.3c0.9,3.8,1.6,9.3-0.8,10.5c-2.6,1.3-6.1-2-8.1-4.2c0.5-0.4,0.7-1,0.5-1.6c-0.3-0.8-1.1-1.2-1.9-0.9
	c-0.8,0.3-1.2,1.1-0.9,1.9c0.3,0.8,1.1,1.2,1.9,0.9c1.2,2.6,2.7,6.8,1,9.2c-1.7,2.5-6.1,1.4-8.7,0.4c0.2-0.4,0.2-0.8,0.1-1.2
	c-0.3-0.8-1.1-1.2-1.9-0.9c-0.8,0.3-1.2,1.1-0.9,1.9C1,30,1.9,30.4,2.6,30.1c0.3-0.1,0.5-0.3,0.7-0.5c2.1,1.1,5.1,3,6.7,5.1
	c2.5,3.2,4.3,6.1,4.3,6.1s4,3.5,16-1.3c12-4.9,14.1-7.2,14.5-8.3c0.4-1.1-0.8-10.5-0.2-13.2c0.4-1.7,0.7-4.4,0.9-6.3
	c0.3,0.1,0.6,0.1,0.9,0c0.8-0.3,1.2-1.1,0.9-1.9C47,8.9,46.1,8.5,45.4,8.8L45.4,8.8z M30.5,37.4c-6.8,2.5-12.8,3.4-13.3,2
	c-0.5-1.4,4.6-4.6,11.4-7c6.8-2.5,12.8-3.4,13.3-2C42.4,31.7,37.3,34.9,30.5,37.4z"/>
</svg>
